<?xml version="1.0" standalone="no"?>
<!DOCTYPE svg PUBLIC "-//W3C//DTD SVG 20010904//EN"
 "http://www.w3.org/TR/2001/REC-SVG-20010904/DTD/svg10.dtd">
<svg version="1.0" xmlns="http://www.w3.org/2000/svg"
 width="713.000000pt" height="713.000000pt" viewBox="0 0 713.000000 713.000000"
 preserveAspectRatio="xMidYMid meet">
<metadata>
Created by potrace 1.14, written by Peter Selinger 2001-2017
</metadata>
<g transform="translate(0.000000,713.000000) scale(0.100000,-0.100000)"
fill="#000000" stroke="none">
<path d="M4368 5525 c-2 -1 -48 -5 -103 -9 -104 -7 -133 -10 -225 -27 -30 -6
-68 -13 -85 -15 -194 -33 -593 -176 -840 -302 -189 -96 -475 -284 -490 -320
-2 -7 10 -2 28 12 110 83 437 256 634 335 337 134 577 185 873 186 241 0 298
-8 492 -70 309 -99 508 -300 592 -597 57 -200 52 -457 -13 -713 -6 -22 -11
-45 -11 -50 0 -6 56 -10 150 -10 l150 0 15 45 c21 63 54 231 63 315 9 86 7
293 -3 360 -67 461 -366 746 -880 840 -57 10 -339 26 -347 20z"/>
<path d="M4078 5265 c-2 -2 -39 -5 -83 -9 -88 -6 -113 -10 -230 -32 -169 -33
-329 -78 -495 -140 -104 -39 -381 -173 -419 -203 -25 -19 -24 -19 117 -20
l141 -2 72 36 c235 119 542 223 734 250 22 3 47 8 55 10 31 9 138 18 225 18
321 3 574 -91 766 -285 64 -65 68 -52 9 28 -140 188 -368 308 -645 340 -45 5
-244 12 -247 9z"/>
<path d="M2807 4774 c-1 -1 -39 -5 -83 -8 -85 -7 -90 -8 -214 -32 -92 -17
-122 -26 -437 -131 -250 -83 -320 -105 -523 -164 -107 -32 -124 -36 -150 -40
-8 -1 1 -5 20 -9 51 -10 505 -9 521 1 10 6 7 9 -11 9 -38 1 -135 43 -135 59 0
8 18 19 40 26 22 7 161 54 309 105 l270 91 175 -2 c97 -2 200 -7 231 -11 110
-17 169 -31 165 -39 -8 -12 -228 -95 -356 -133 -157 -47 -360 -95 -513 -120
-37 -7 -46 -16 -15 -17 13 0 33 -2 44 -4 78 -15 228 -18 905 -20 421 -2 826
-6 900 -9 74 -3 212 -8 306 -11 341 -10 422 -18 555 -51 31 -8 73 -21 94 -30
l38 -15 -37 -30 c-20 -17 -48 -51 -63 -76 -26 -44 -58 -153 -44 -153 3 0 21
24 39 54 40 68 112 132 153 138 20 3 46 -3 73 -17 34 -18 48 -35 84 -106 l44
-84 -5 71 c-12 196 -149 287 -527 349 -82 13 -149 42 -325 140 -278 154 -467
217 -655 218 -96 1 -224 -8 -275 -18 -11 -2 -40 -7 -65 -10 -44 -5 -70 -9
-120 -20 -14 -3 -35 -7 -48 -10 -13 -2 -32 -7 -43 -10 -54 -15 -64 -16 -48 -6
19 12 183 53 260 64 152 23 165 25 243 26 222 4 -258 31 -622 35 -84 1 -153 1
-155 0z m865 -149 c38 -49 97 -155 117 -208 l11 -28 -98 6 c-53 3 -169 7 -256
10 -88 3 -177 10 -198 16 -39 10 -118 80 -118 104 0 45 314 152 445 150 59 0
59 0 97 -50z m158 41 c41 -8 107 -24 145 -36 89 -27 305 -133 414 -203 79 -51
92 -69 46 -61 -11 2 -110 6 -220 10 -110 4 -216 8 -235 9 -19 2 -44 3 -56 4
-14 1 -27 16 -43 49 -29 59 -97 155 -145 205 l-37 37 28 0 c15 0 62 -7 103
-14z"/>
<path d="M1367 4335 c-39 -11 -49 -21 -61 -62 -7 -21 -5 -22 76 -21 84 0 493
-10 648 -17 138 -6 212 -22 260 -56 20 -13 40 -17 85 -14 33 2 113 5 179 6
105 2 116 4 100 17 -21 15 -100 52 -124 57 -8 2 -42 10 -75 18 -55 14 -134 28
-240 42 -22 2 -101 8 -175 11 -124 6 -140 5 -175 -14 -33 -16 -55 -19 -120
-16 -44 2 -124 4 -178 5 -87 2 -100 5 -115 24 -23 29 -41 33 -85 20z"/>
<path d="M1244 4162 c-32 -47 -34 -65 -20 -153 5 -36 22 -64 30 -51 3 5 12 32
18 59 7 27 16 50 21 51 4 1 44 2 90 1 62 0 77 -3 61 -10 -19 -10 -54 -58 -54
-75 0 -4 9 2 20 14 29 31 56 35 188 29 119 -5 175 -19 216 -55 18 -16 18 -16
8 4 -13 24 -90 64 -124 64 -12 0 -19 3 -15 6 3 3 132 6 286 6 156 0 281 4 281
9 0 5 -17 9 -37 9 -21 1 -74 3 -118 5 -44 2 -143 7 -220 10 -77 3 -156 8 -175
10 -19 1 -80 6 -134 10 -55 4 -109 9 -120 10 -12 2 -48 7 -80 10 -33 3 -63 8
-68 11 -4 3 -8 21 -8 40 0 19 -3 34 -7 34 -5 0 -22 -22 -39 -48z"/>
<path d="M4398 4165 c-2 -1 -32 -6 -68 -9 -86 -9 -236 -25 -280 -31 -19 -2
-71 -7 -115 -10 -43 -4 -82 -8 -85 -10 -3 -1 -50 -6 -105 -10 -174 -12 -118
-16 130 -10 343 10 493 13 718 14 130 1 197 5 197 12 0 10 -54 36 -94 46 -23
5 -293 13 -298 8z"/>
<path d="M3142 4084 c-79 -16 -172 -86 -172 -130 0 -20 54 -10 90 17 52 39
104 53 172 45 63 -6 90 -17 126 -49 22 -21 92 -32 92 -16 0 17 -74 91 -110
109 -59 30 -128 38 -198 24z"/>
<path d="M2265 4060 c-4 -6 10 -7 37 -4 57 8 61 14 10 14 -22 0 -44 -4 -47
-10z"/>
<path d="M2485 3873 c-27 -2 -69 -5 -93 -9 -41 -5 -42 -6 -40 -40 3 -42 19
-57 58 -56 36 1 197 49 204 61 15 24 -53 47 -129 44z"/>
<path d="M4014 3830 c-30 -12 -114 -99 -114 -118 0 -8 7 -24 16 -33 16 -18 19
-16 60 28 l43 47 23 -19 c12 -11 29 -28 36 -37 16 -22 41 -23 69 -3 l21 15
-33 32 c-91 90 -99 96 -121 88z"/>
<path d="M2489 3724 c0 -11 -2 -27 -4 -37 -2 -9 3 -24 11 -31 14 -15 19 -48 8
-59 -4 -3 -16 -2 -27 4 -37 20 -86 13 -135 -21 -88 -60 -87 -54 -87 -310 1
-215 2 -227 24 -273 27 -56 76 -86 133 -82 42 2 126 58 145 96 15 29 18 436 4
487 -6 20 -6 32 0 32 5 0 22 21 38 46 50 77 21 146 -66 160 -38 6 -43 4 -44
-12z m-61 -174 c64 -39 72 -74 72 -347 0 -263 2 -256 -58 -242 -48 11 -77 33
-97 76 -17 33 -19 67 -20 278 -1 132 0 243 2 248 8 14 69 7 101 -13z"/>
<path d="M2115 3693 c1 -21 3 -41 4 -45 0 -4 20 -8 43 -10 43 -3 54 -13 39
-37 -7 -11 -13 -12 -23 -4 -11 9 -13 -43 -13 -302 0 -172 -3 -316 -7 -320 -15
-15 -79 -8 -105 11 -57 42 -62 67 -63 321 l-1 232 -29 31 c-15 16 -32 30 -37
30 -8 0 -8 -451 1 -533 9 -86 61 -142 142 -152 33 -4 46 0 86 30 84 62 82 56
83 331 1 241 2 244 25 269 18 19 23 36 23 74 -1 82 -36 111 -133 111 -37 0
-37 0 -35 -37z"/>
<path d="M2681 3599 c-29 -6 -87 -55 -73 -61 4 -2 39 -3 79 -3 66 2 71 0 63
-15 -5 -10 -10 -144 -10 -299 -1 -164 -5 -283 -11 -286 -5 -4 -9 -11 -9 -16 0
-15 47 19 67 49 16 24 18 56 19 292 1 146 3 267 3 270 1 3 22 6 47 7 48 2 87
21 103 50 8 17 0 18 -120 18 -70 0 -141 -3 -158 -6z"/>
<path d="M3212 3582 c-17 -16 -34 -40 -37 -54 -8 -31 -12 -618 -5 -618 17 0
58 54 63 82 3 18 5 140 4 270 -1 130 1 234 5 230 16 -17 137 -488 131 -511 -5
-21 -4 -22 15 -12 12 6 39 28 60 49 41 38 41 40 78 252 3 14 14 72 26 130 11
58 21 111 21 118 0 6 4 12 9 12 4 0 8 -126 8 -281 l0 -281 33 -31 32 -32 3
340 c3 387 4 381 -67 345 -64 -34 -86 -77 -106 -210 -3 -19 -16 -91 -29 -160
l-23 -125 -16 55 c-8 30 -39 138 -67 240 -36 129 -58 190 -72 203 -27 23 -31
22 -66 -11z"/>
<path d="M4290 3593 c-14 -8 -34 -26 -44 -40 -18 -24 -19 -48 -20 -338 l-1
-312 21 14 c46 30 50 55 49 332 0 143 4 256 8 252 7 -7 142 -391 174 -495 8
-27 13 -60 10 -73 -7 -36 7 -36 43 2 l33 34 1 321 c1 176 -2 320 -5 320 -8 0
-45 -42 -58 -67 -6 -12 -11 -68 -10 -130 0 -59 0 -135 -1 -168 l-1 -60 -50
150 c-90 270 -100 288 -149 258z"/>
<path d="M4874 3598 c-25 -7 -74 -45 -74 -57 0 -4 34 -6 75 -5 l75 1 -6 -35
c-4 -20 -8 -153 -9 -297 -1 -143 -5 -269 -10 -279 -8 -19 -8 -19 17 0 59 44
61 55 63 339 1 143 3 262 4 265 0 3 19 6 41 6 46 0 84 18 104 48 13 21 13 21
-121 21 -73 0 -145 -3 -159 -7z"/>
<path d="M5274 3602 c-12 -2 -36 -19 -55 -38 l-33 -34 -1 -288 c-1 -158 -5
-298 -9 -310 -7 -21 -6 -23 12 -13 47 25 65 69 68 160 1 47 3 89 3 94 1 4 17
7 36 7 35 0 36 -1 80 -97 56 -123 69 -145 93 -161 16 -10 23 -9 45 9 25 19 40
58 18 44 -17 -10 -45 32 -84 126 l-39 92 26 21 c43 35 56 83 53 193 -4 103
-23 164 -55 179 -21 9 -129 20 -158 16z m96 -85 c34 -17 49 -68 46 -156 -3
-95 -21 -113 -105 -109 l-56 3 0 137 0 138 45 0 c25 0 56 -6 70 -13z"/>
<path d="M5580 3316 l5 -293 28 -37 c36 -47 62 -63 112 -71 36 -6 46 -3 92 32
82 59 83 65 83 333 0 246 -5 280 -50 308 -20 12 -20 10 -20 -290 0 -167 -4
-309 -9 -316 -11 -19 -61 -22 -93 -6 -14 8 -37 28 -50 46 -22 32 -23 41 -28
278 -3 135 -9 250 -13 257 -4 7 -20 21 -35 31 l-27 20 5 -292z"/>
<path d="M5971 3574 l-40 -36 -3 -318 c-3 -304 -2 -318 15 -308 26 14 58 69
56 98 -3 69 2 503 6 498 15 -15 186 -539 186 -570 l0 -38 25 17 c47 30 48 40
50 376 l1 317 -21 -13 c-44 -29 -52 -62 -51 -240 0 -91 -2 -163 -5 -159 -4 4
-33 86 -65 182 -67 201 -69 206 -95 220 -16 9 -26 4 -59 -26z"/>
<path d="M6440 3600 c-56 -5 -91 -24 -124 -67 -15 -20 -17 -50 -17 -253 0
-172 4 -237 14 -262 16 -38 79 -97 105 -99 9 -1 29 -3 43 -4 30 -4 112 46 141
86 16 21 19 46 21 147 l3 122 -59 0 c-53 0 -62 -3 -88 -31 -16 -17 -29 -34
-29 -38 0 -3 24 -5 53 -3 l53 4 -3 -113 c-2 -78 -6 -115 -15 -121 -41 -25
-120 12 -150 72 -16 30 -18 66 -18 263 l0 227 28 1 c15 0 62 1 104 3 64 1 80
5 93 21 38 49 38 50 -33 50 -37 0 -92 -2 -122 -5z"/>
<path d="M532 3571 l-21 -29 23 -6 c14 -3 30 -20 39 -38 26 -57 87 -217 87
-229 0 -22 -132 -307 -151 -328 l-20 -21 30 0 c44 0 77 40 132 160 47 103 48
104 59 75 55 -152 84 -217 100 -225 30 -16 58 -12 74 12 21 29 20 38 -3 38
-27 0 -33 10 -90 160 l-52 135 66 145 c37 80 74 153 82 163 15 16 14 17 -6 17
-51 0 -76 -26 -125 -129 -26 -56 -49 -101 -51 -101 -2 0 -16 33 -31 73 -52
137 -63 157 -93 157 -18 0 -34 -9 -49 -29z"/>
<path d="M1030 3593 c-20 -8 -50 -43 -62 -73 -7 -15 -11 -137 -12 -306 -1
-233 -4 -284 -16 -299 -14 -17 -13 -17 7 -7 13 7 72 12 150 12 l129 0 33 34
33 34 -113 0 c-63 0 -123 1 -135 1 -20 1 -20 6 -19 126 1 69 5 128 8 131 3 4
30 7 60 8 56 2 99 22 116 53 8 17 2 18 -85 13 -59 -3 -94 -1 -95 5 -4 42 -3
189 1 196 4 5 46 9 95 10 98 1 121 8 148 45 l18 24 -123 -1 c-68 0 -130 -3
-138 -6z"/>
<path d="M1545 3258 c0 -288 -2 -340 -15 -349 -12 -9 -11 -9 5 -3 11 4 74 8
139 10 145 3 159 6 185 42 l20 29 -132 -1 -133 -1 1 266 c0 282 -3 302 -49
333 l-21 13 0 -339z"/>
<path d="M3752 3567 l-31 -32 -1 -294 c-1 -171 -5 -302 -11 -313 -16 -29 4
-21 42 18 l34 35 5 310 c3 170 3 309 -1 309 -3 0 -19 -15 -37 -33z"/>
<path d="M3901 3574 c-17 -14 -35 -42 -41 -62 -5 -21 -10 -151 -10 -299 0
-160 -4 -273 -11 -290 -8 -23 -8 -26 2 -15 9 8 53 12 146 12 133 0 133 0 163
29 17 15 30 31 30 34 0 3 -53 6 -117 6 -155 -1 -155 -1 -148 12 4 6 7 64 6
130 l0 119 27 1 c82 1 104 7 132 34 17 16 30 31 30 34 0 6 -144 4 -172 -3 -16
-4 -17 7 -17 108 l1 111 104 0 c104 0 104 0 136 33 l33 32 -132 0 c-127 0
-133 -1 -162 -26z"/>
<path d="M1337 2585 c25 -134 108 -293 216 -412 105 -116 344 -236 514 -259
26 -3 71 -10 98 -14 56 -9 376 -6 415 4 14 4 43 9 65 12 81 11 293 64 392 98
132 45 246 94 413 177 181 91 206 112 44 39 -248 -113 -527 -194 -769 -225
-107 -13 -366 -13 -430 0 -16 3 -64 13 -105 21 -198 41 -428 200 -524 363 -37
64 -76 169 -76 206 0 20 -4 21 -129 21 l-130 -1 6 -30z"/>
<path d="M4228 2597 c-13 -10 -33 -27 -46 -38 -145 -124 -415 -310 -612 -423
-250 -142 -591 -277 -787 -312 -13 -2 -35 -6 -50 -9 -121 -24 -275 -38 -447
-40 -308 -3 -540 54 -723 177 -99 66 -220 208 -295 343 -31 57 -34 56 -13 -5
77 -220 258 -421 475 -530 77 -39 243 -95 314 -106 21 -3 47 -7 57 -9 189 -37
495 -21 776 40 255 55 639 210 910 366 47 27 87 49 89 49 7 0 254 158 319 204
76 54 217 158 225 166 3 3 37 31 77 63 39 32 76 63 81 70 8 10 -26 12 -158 12
-148 0 -172 -2 -192 -18z"/>
</g>
</svg>
