<svg xmlns="http://www.w3.org/2000/svg" xmlns:xlink="http://www.w3.org/1999/xlink" width="508" zoomAndPan="magnify" viewBox="0 0 381 242.999999" height="324" preserveAspectRatio="xMidYMid meet" version="1.0"><defs><g/><clipPath id="45fcd13bfd"><path d="M 130.636719 0.0625 L 250.636719 0.0625 L 250.636719 89 L 130.636719 89 Z M 130.636719 0.0625 " clip-rule="nonzero"/></clipPath><clipPath id="c12ff4a86d"><path d="M 132 46 L 223 46 L 223 120.8125 L 132 120.8125 Z M 132 46 " clip-rule="nonzero"/></clipPath></defs><rect x="-38.1" width="457.2" fill="#ffffff" y="-24.3" height="291.599999" fill-opacity="1"/><g clip-path="url(#45fcd13bfd)"><path fill="#ffde59" d="M 130.632812 0.210938 L 130.632812 75.144531 L 141.226562 71.027344 L 141.226562 16.265625 L 190.515625 51.023438 L 239.8125 16.265625 L 239.8125 78.28125 L 219.765625 78.28125 L 216.40625 88.878906 L 250.40625 88.878906 L 250.40625 0.210938 Z M 190.515625 38.066406 L 151.863281 10.804688 L 229.171875 10.804688 Z M 190.515625 38.066406 " fill-opacity="1" fill-rule="nonzero"/></g><g clip-path="url(#c12ff4a86d)"><path fill="#ffde59" d="M 221.433594 46.859375 L 132.046875 81.585938 L 158.136719 96.566406 L 160.246094 116.269531 C 160.253906 116.3125 160.269531 116.34375 160.269531 116.382812 C 160.285156 116.457031 160.296875 116.53125 160.320312 116.597656 C 160.335938 116.652344 160.351562 116.703125 160.375 116.75 C 160.402344 116.816406 160.425781 116.882812 160.457031 116.945312 C 160.492188 116.996094 160.515625 117.035156 160.546875 117.085938 C 160.582031 117.144531 160.621094 117.199219 160.671875 117.257812 C 160.703125 117.296875 160.742188 117.347656 160.792969 117.386719 C 160.816406 117.410156 160.839844 117.445312 160.867188 117.46875 C 160.890625 117.492188 160.914062 117.507812 160.945312 117.527344 L 160.996094 117.574219 C 161.027344 117.597656 161.054688 117.617188 161.085938 117.632812 C 161.125 117.65625 161.160156 117.679688 161.199219 117.703125 C 161.257812 117.730469 161.3125 117.753906 161.371094 117.785156 C 161.410156 117.800781 161.453125 117.820312 161.492188 117.835938 C 161.550781 117.851562 161.617188 117.867188 161.679688 117.882812 C 161.722656 117.890625 161.753906 117.910156 161.792969 117.910156 C 161.890625 117.933594 162 117.941406 162.097656 117.941406 C 162.105469 117.941406 162.105469 117.941406 162.105469 117.941406 C 162.226562 117.941406 162.347656 117.925781 162.472656 117.902344 L 162.488281 117.902344 L 184.769531 113.476562 C 184.800781 113.46875 184.832031 113.449219 184.867188 113.441406 L 186.820312 113.035156 L 199.585938 120.363281 L 222.558594 47.917969 C 222.769531 47.234375 222.101562 46.609375 221.433594 46.859375 Z M 202.28125 68.75 L 172.984375 101.085938 C 172.863281 101.167969 172.746094 101.265625 172.640625 101.382812 L 163.507812 111.683594 L 161.902344 96.65625 L 201.914062 68.335938 C 202.183594 68.140625 202.5 68.503906 202.28125 68.75 Z M 202.28125 68.75 " fill-opacity="1" fill-rule="nonzero"/></g><g fill="#ffde59" fill-opacity="1"><g transform="translate(74.385422, 182.150962)"><g><path d="M 22.390625 0 L 5.703125 0 C 5.066406 0 4.609375 -0.140625 4.328125 -0.421875 C 4.054688 -0.703125 3.921875 -1.15625 3.921875 -1.78125 L 3.921875 -13.125 L 2.78125 -13.125 C 2.144531 -13.125 1.6875 -13.265625 1.40625 -13.546875 C 1.125 -13.828125 0.984375 -14.28125 0.984375 -14.90625 L 0.984375 -20.21875 C 0.984375 -20.84375 1.125 -21.296875 1.40625 -21.578125 C 1.6875 -21.859375 2.144531 -22 2.78125 -22 L 3.921875 -22 L 3.921875 -33.890625 C 3.921875 -34.515625 4.054688 -34.96875 4.328125 -35.25 C 4.609375 -35.53125 5.066406 -35.671875 5.703125 -35.671875 L 22.390625 -35.671875 C 27.046875 -35.671875 30.238281 -34.726562 31.96875 -32.84375 C 33.707031 -30.96875 34.578125 -28.539062 34.578125 -25.5625 L 34.578125 -10.109375 C 34.578125 -7.128906 33.707031 -4.695312 31.96875 -2.8125 C 30.238281 -0.9375 27.046875 0 22.390625 0 Z M 15.015625 -9.359375 L 21.0625 -9.359375 C 22.050781 -9.359375 22.6875 -9.597656 22.96875 -10.078125 C 23.25 -10.554688 23.390625 -11.128906 23.390625 -11.796875 L 23.390625 -23.828125 C 23.390625 -24.460938 23.25 -25.015625 22.96875 -25.484375 C 22.6875 -25.960938 22.050781 -26.203125 21.0625 -26.203125 L 15.015625 -26.203125 L 15.015625 -22 L 17.046875 -22 C 17.671875 -22 18.125 -21.859375 18.40625 -21.578125 C 18.6875 -21.296875 18.828125 -20.84375 18.828125 -20.21875 L 18.828125 -14.90625 C 18.828125 -14.28125 18.6875 -13.828125 18.40625 -13.546875 C 18.125 -13.265625 17.671875 -13.125 17.046875 -13.125 L 15.015625 -13.125 Z M 15.015625 -9.359375 "/></g></g></g><g fill="#ffde59" fill-opacity="1"><g transform="translate(113.674133, 182.150962)"><g><path d="M 16.34375 -25.265625 L 14.015625 -17.734375 L 21.796875 -17.734375 L 19.46875 -25.265625 C 19.34375 -25.566406 19.203125 -25.78125 19.046875 -25.90625 C 18.898438 -26.039062 18.726562 -26.109375 18.53125 -26.109375 L 17.296875 -26.109375 C 17.097656 -26.109375 16.921875 -26.039062 16.765625 -25.90625 C 16.617188 -25.78125 16.476562 -25.566406 16.34375 -25.265625 Z M 13.53125 -1.78125 C 13.53125 -1.15625 13.390625 -0.703125 13.109375 -0.421875 C 12.828125 -0.140625 12.375 0 11.75 0 L 4.453125 0 C 3.828125 0 3.375 -0.140625 3.09375 -0.421875 C 2.8125 -0.703125 2.671875 -1.15625 2.671875 -1.78125 L 2.671875 -14.859375 C 2.671875 -15.847656 2.828125 -16.988281 3.140625 -18.28125 C 3.453125 -19.570312 3.941406 -21.078125 4.609375 -22.796875 L 8.921875 -34.03125 C 9.117188 -34.59375 9.421875 -35.003906 9.828125 -35.265625 C 10.242188 -35.535156 10.785156 -35.671875 11.453125 -35.671875 L 24.78125 -35.671875 C 25.40625 -35.671875 25.921875 -35.535156 26.328125 -35.265625 C 26.742188 -35.003906 27.050781 -34.59375 27.25 -34.03125 L 31.5625 -22.796875 C 32.21875 -21.078125 32.703125 -19.570312 33.015625 -18.28125 C 33.335938 -16.988281 33.5 -15.847656 33.5 -14.859375 L 33.5 -1.78125 C 33.5 -1.15625 33.359375 -0.703125 33.078125 -0.421875 C 32.796875 -0.140625 32.335938 0 31.703125 0 L 24.234375 0 C 23.566406 0 23.078125 -0.140625 22.765625 -0.421875 C 22.453125 -0.703125 22.296875 -1.15625 22.296875 -1.78125 L 22.296875 -8.71875 L 13.53125 -8.71875 Z M 18.046875 -37.859375 L 16.65625 -38.046875 C 15.726562 -38.179688 14.953125 -38.273438 14.328125 -38.328125 C 13.703125 -38.378906 13.140625 -38.378906 12.640625 -38.328125 C 12.140625 -38.273438 11.648438 -38.191406 11.171875 -38.078125 C 10.691406 -37.960938 10.125 -37.804688 9.46875 -37.609375 C 8.875 -37.441406 8.425781 -37.457031 8.125 -37.65625 C 7.832031 -37.851562 7.6875 -38.265625 7.6875 -38.890625 L 7.6875 -43.90625 C 7.6875 -44.53125 7.84375 -44.960938 8.15625 -45.203125 C 8.46875 -45.453125 8.90625 -45.695312 9.46875 -45.9375 C 10.257812 -46.164062 10.921875 -46.335938 11.453125 -46.453125 C 11.984375 -46.566406 12.503906 -46.625 13.015625 -46.625 C 13.523438 -46.625 14.101562 -46.582031 14.75 -46.5 C 15.394531 -46.414062 16.210938 -46.304688 17.203125 -46.171875 L 18.046875 -46.078125 L 19.125 -45.9375 C 20.21875 -45.769531 21.085938 -45.648438 21.734375 -45.578125 C 22.378906 -45.515625 22.941406 -45.5 23.421875 -45.53125 C 23.898438 -45.5625 24.367188 -45.644531 24.828125 -45.78125 C 25.285156 -45.914062 25.878906 -46.097656 26.609375 -46.328125 C 27.203125 -46.492188 27.644531 -46.476562 27.9375 -46.28125 C 28.238281 -46.082031 28.390625 -45.664062 28.390625 -45.03125 L 28.390625 -40.03125 C 28.390625 -39.40625 28.234375 -38.96875 27.921875 -38.71875 C 27.609375 -38.46875 27.171875 -38.226562 26.609375 -38 C 25.816406 -37.769531 25.15625 -37.597656 24.625 -37.484375 C 24.101562 -37.367188 23.578125 -37.3125 23.046875 -37.3125 C 22.515625 -37.3125 21.925781 -37.351562 21.28125 -37.4375 C 20.632812 -37.519531 19.816406 -37.625 18.828125 -37.75 Z M 18.046875 -37.859375 "/></g></g></g><g fill="#ffde59" fill-opacity="1"><g transform="translate(151.674684, 182.150962)"><g/></g></g><g fill="#ffde59" fill-opacity="1"><g transform="translate(164.655428, 182.150962)"><g><path d="M 30.671875 0 L 15.0625 0 C 10.9375 0 7.875 -0.820312 5.875 -2.46875 C 3.875 -4.125 2.875 -6.671875 2.875 -10.109375 L 2.875 -25.5625 C 2.875 -29 3.875 -31.539062 5.875 -33.1875 C 7.875 -34.84375 10.9375 -35.671875 15.0625 -35.671875 L 27.453125 -35.671875 C 28.078125 -35.671875 28.53125 -35.53125 28.8125 -35.25 C 29.09375 -34.96875 29.234375 -34.515625 29.234375 -33.890625 L 29.234375 -27.890625 C 29.234375 -27.265625 29.09375 -26.8125 28.8125 -26.53125 C 28.53125 -26.25 28.078125 -26.109375 27.453125 -26.109375 L 17.140625 -26.109375 C 16.117188 -26.109375 15.359375 -25.898438 14.859375 -25.484375 C 14.367188 -25.078125 14.125 -24.460938 14.125 -23.640625 L 14.125 -11.796875 C 14.125 -10.960938 14.3125 -10.347656 14.6875 -9.953125 C 15.070312 -9.554688 15.644531 -9.359375 16.40625 -9.359375 L 21.203125 -9.359375 L 21.203125 -17.09375 C 21.203125 -17.71875 21.34375 -18.171875 21.625 -18.453125 C 21.90625 -18.734375 22.359375 -18.875 22.984375 -18.875 L 30.671875 -18.875 C 31.296875 -18.875 31.75 -18.734375 32.03125 -18.453125 C 32.3125 -18.171875 32.453125 -17.71875 32.453125 -17.09375 L 32.453125 -1.78125 C 32.453125 -1.15625 32.3125 -0.703125 32.03125 -0.421875 C 31.75 -0.140625 31.296875 0 30.671875 0 Z M 30.671875 0 "/></g></g></g><g fill="#ffde59" fill-opacity="1"><g transform="translate(201.56601, 182.150962)"><g><path d="M 18.484375 0.75 C 15.410156 0.75 12.878906 0.5 10.890625 0 C 8.910156 -0.5 7.351562 -1.1875 6.21875 -2.0625 C 5.082031 -2.9375 4.289062 -3.988281 3.84375 -5.21875 C 3.394531 -6.457031 3.171875 -7.835938 3.171875 -9.359375 L 3.171875 -33.890625 C 3.171875 -34.515625 3.3125 -34.96875 3.59375 -35.25 C 3.875 -35.53125 4.328125 -35.671875 4.953125 -35.671875 L 12.734375 -35.671875 C 13.359375 -35.671875 13.8125 -35.53125 14.09375 -35.25 C 14.375 -34.96875 14.515625 -34.515625 14.515625 -33.890625 L 14.515625 -11.296875 C 14.515625 -10.640625 14.757812 -10.085938 15.25 -9.640625 C 15.75 -9.191406 16.859375 -8.96875 18.578125 -8.96875 C 20.328125 -8.96875 21.445312 -9.191406 21.9375 -9.640625 C 22.4375 -10.085938 22.6875 -10.640625 22.6875 -11.296875 L 22.6875 -33.890625 C 22.6875 -34.515625 22.828125 -34.96875 23.109375 -35.25 C 23.390625 -35.53125 23.84375 -35.671875 24.46875 -35.671875 L 26.203125 -35.671875 C 27.035156 -35.671875 27.570312 -35.796875 27.8125 -36.046875 C 28.0625 -36.296875 28.1875 -36.648438 28.1875 -37.109375 L 28.1875 -38.15625 C 28.1875 -38.75 28.296875 -39.148438 28.515625 -39.359375 C 28.734375 -39.578125 29.117188 -39.6875 29.671875 -39.6875 L 35.171875 -39.6875 C 35.804688 -39.6875 36.265625 -39.546875 36.546875 -39.265625 C 36.828125 -38.984375 36.96875 -38.53125 36.96875 -37.90625 L 36.96875 -35.71875 C 36.96875 -34.46875 36.742188 -33.351562 36.296875 -32.375 C 35.847656 -31.40625 35.015625 -30.601562 33.796875 -29.96875 L 33.796875 -9.359375 C 33.796875 -7.835938 33.570312 -6.457031 33.125 -5.21875 C 32.675781 -3.988281 31.878906 -2.9375 30.734375 -2.0625 C 29.597656 -1.1875 28.039062 -0.5 26.0625 0 C 24.082031 0.5 21.554688 0.75 18.484375 0.75 Z M 22.75 -38 L 15.765625 -37.0625 C 15.429688 -37.03125 15.191406 -37.070312 15.046875 -37.1875 C 14.898438 -37.300781 14.804688 -37.523438 14.765625 -37.859375 L 14.234375 -41.765625 C 14.191406 -42.097656 14.238281 -42.347656 14.375 -42.515625 C 14.507812 -42.679688 14.738281 -42.78125 15.0625 -42.8125 L 19.484375 -43.5 C 19.804688 -43.53125 20.039062 -43.601562 20.1875 -43.71875 C 20.34375 -43.84375 20.421875 -44.050781 20.421875 -44.34375 C 20.421875 -44.570312 20.328125 -44.742188 20.140625 -44.859375 C 19.960938 -44.972656 19.742188 -45.03125 19.484375 -45.03125 L 13.09375 -45.03125 C 12.757812 -45.03125 12.515625 -45.101562 12.359375 -45.25 C 12.210938 -45.40625 12.140625 -45.648438 12.140625 -45.984375 L 12.140625 -49.59375 C 12.140625 -49.925781 12.210938 -50.164062 12.359375 -50.3125 C 12.515625 -50.457031 12.757812 -50.53125 13.09375 -50.53125 L 21.40625 -50.53125 C 23.09375 -50.53125 24.40625 -50.101562 25.34375 -49.25 C 26.289062 -48.394531 26.765625 -47.140625 26.765625 -45.484375 L 26.765625 -42.3125 C 26.765625 -40.863281 26.398438 -39.820312 25.671875 -39.1875 C 24.941406 -38.5625 23.96875 -38.164062 22.75 -38 Z M 22.75 -38 "/></g></g></g><g fill="#ffde59" fill-opacity="1"><g transform="translate(240.854717, 182.150962)"><g><path d="M 4.40625 0 C 3.78125 0 3.328125 -0.140625 3.046875 -0.421875 C 2.765625 -0.703125 2.625 -1.15625 2.625 -1.78125 L 2.625 -7.6875 C 2.625 -8.3125 2.765625 -8.765625 3.046875 -9.046875 C 3.328125 -9.328125 3.78125 -9.46875 4.40625 -9.46875 L 9.3125 -9.46875 L 9.3125 -26.109375 L 4.40625 -26.109375 C 3.78125 -26.109375 3.328125 -26.25 3.046875 -26.53125 C 2.765625 -26.8125 2.625 -27.265625 2.625 -27.890625 L 2.625 -33.890625 C 2.625 -34.515625 2.765625 -34.96875 3.046875 -35.25 C 3.328125 -35.53125 3.78125 -35.671875 4.40625 -35.671875 L 25.515625 -35.671875 C 26.140625 -35.671875 26.59375 -35.53125 26.875 -35.25 C 27.15625 -34.96875 27.296875 -34.515625 27.296875 -33.890625 L 27.296875 -27.890625 C 27.296875 -27.265625 27.15625 -26.8125 26.875 -26.53125 C 26.59375 -26.25 26.140625 -26.109375 25.515625 -26.109375 L 20.703125 -26.109375 L 20.703125 -9.46875 L 25.515625 -9.46875 C 26.140625 -9.46875 26.59375 -9.328125 26.875 -9.046875 C 27.15625 -8.765625 27.296875 -8.3125 27.296875 -7.6875 L 27.296875 -1.78125 C 27.296875 -1.15625 27.15625 -0.703125 26.875 -0.421875 C 26.59375 -0.140625 26.140625 0 25.515625 0 Z M 4.40625 0 "/></g></g></g><g fill="#ffde59" fill-opacity="1"><g transform="translate(272.662247, 182.150962)"><g/></g></g><g fill="#ffde59" fill-opacity="1"><g transform="translate(285.642984, 182.150962)"><g><path d="M 14.359375 -12.984375 L 6.6875 -12.984375 C 6.0625 -12.984375 5.609375 -13.125 5.328125 -13.40625 C 5.046875 -13.6875 4.890625 -14.140625 4.859375 -14.765625 L 4.109375 -33.890625 C 4.078125 -34.515625 4.191406 -34.96875 4.453125 -35.25 C 4.722656 -35.53125 5.171875 -35.671875 5.796875 -35.671875 L 15.25 -35.671875 C 15.882812 -35.671875 16.332031 -35.53125 16.59375 -35.25 C 16.851562 -34.96875 16.96875 -34.515625 16.9375 -33.890625 L 16.25 -14.765625 C 16.21875 -14.140625 16.050781 -13.6875 15.75 -13.40625 C 15.457031 -13.125 14.992188 -12.984375 14.359375 -12.984375 Z M 15.109375 0 L 6 0 C 5.363281 0 4.90625 -0.140625 4.625 -0.421875 C 4.34375 -0.703125 4.203125 -1.15625 4.203125 -1.78125 L 4.203125 -8.28125 C 4.203125 -8.90625 4.34375 -9.359375 4.625 -9.640625 C 4.90625 -9.921875 5.363281 -10.0625 6 -10.0625 L 15.109375 -10.0625 C 15.734375 -10.0625 16.1875 -9.921875 16.46875 -9.640625 C 16.75 -9.359375 16.890625 -8.90625 16.890625 -8.28125 L 16.890625 -1.78125 C 16.890625 -1.15625 16.75 -0.703125 16.46875 -0.421875 C 16.1875 -0.140625 15.734375 0 15.109375 0 Z M 15.109375 0 "/></g></g></g></svg>