<svg width="399" height="399" viewBox="0 0 399 399" fill="none" xmlns="http://www.w3.org/2000/svg">
<path d="M73.9243 253.082L62.0876 253.304L56.0906 253.394C54.0876 253.431 52.0751 253.424 50.0665 253.438L49.7122 253.44L49.7106 253.082L49.6675 243.001L49.6659 242.6L50.0665 242.602L61.995 242.652C65.9714 242.656 69.9471 242.741 73.9235 242.783L74.143 242.785L74.1413 243.001C74.1262 244.707 74.0727 246.406 74.0368 248.088L73.9243 253.082ZM73.9243 253.082L73.811 247.994C73.7751 246.316 73.7216 244.654 73.7064 243.001L73.9243 243.218C69.9479 243.259 65.9722 243.345 61.9958 243.349L50.0673 243.4L50.4655 243.001L50.4224 253.082L50.0665 252.727C52.0344 252.741 53.9982 252.733 55.9717 252.77L61.9032 252.86L73.9243 253.082Z" fill="#EBEBEB"/>
<path d="M60.6153 265.794L48.7785 266.016L42.7816 266.106C40.7786 266.143 38.766 266.136 36.7575 266.15L36.4032 266.152L36.4016 265.794L36.3585 255.713L36.3569 255.312L36.7575 255.314L48.686 255.364C52.6624 255.368 56.638 255.453 60.6145 255.495L60.8339 255.497L60.8323 255.713C60.8172 257.42 60.7637 259.119 60.7278 260.8L60.6153 265.794ZM60.6153 265.794L60.502 260.707C60.466 259.028 60.4126 257.366 60.3974 255.713L60.6153 255.931C56.6388 255.971 52.6632 256.057 48.6868 256.061L36.7583 256.112L37.1565 255.714L37.1134 265.795L36.7575 265.439C38.7253 265.453 40.6892 265.445 42.6627 265.483L48.5942 265.572L60.6153 265.794Z" fill="#EBEBEB"/>
<path d="M60.6153 47.6518L48.7785 47.8744L42.7816 47.9638C40.7786 48.0013 38.766 47.9933 36.7575 48.0077L36.4032 48.0101L36.4016 47.6518L36.3585 37.5706L36.3569 37.17L36.7575 37.1716L48.686 37.2219C52.6624 37.2259 56.638 37.3113 60.6145 37.3528L60.8339 37.3552L60.8323 37.5706C60.8172 39.2776 60.7637 40.9765 60.7278 42.6579L60.6153 47.6518ZM60.6153 47.6518L60.502 42.5645C60.466 40.8863 60.4126 39.2241 60.3974 37.5706L60.6153 37.7885C56.6388 37.8292 52.6632 37.9154 48.6868 37.9194L36.7583 37.9688L37.1565 37.5706L37.1134 47.6518L36.7575 47.2959C38.7253 47.3102 40.6892 47.3023 42.6627 47.3398L48.5942 47.4291L60.6153 47.6518Z" fill="#EBEBEB"/>
<path d="M362.242 47.6518L350.405 47.8744L344.408 47.9638C342.405 48.0013 340.392 47.9933 338.384 48.0077L338.03 48.0101L338.028 47.6518L337.985 37.5706L337.983 37.17L338.384 37.1716L350.312 37.2219C354.289 37.2259 358.264 37.3113 362.241 37.3528L362.46 37.3552L362.459 37.5706C362.444 39.2776 362.39 40.9765 362.354 42.6579L362.242 47.6518ZM362.242 47.6518L362.128 42.5645C362.092 40.8863 362.039 39.2241 362.024 37.5706L362.242 37.7885C358.265 37.8292 354.289 37.9154 350.313 37.9194L338.385 37.9696L338.783 37.5714L338.74 47.6526L338.384 47.2967C340.352 47.311 342.316 47.3031 344.289 47.3406L350.221 47.4299L362.242 47.6518Z" fill="#EBEBEB"/>
<path d="M348.933 60.3639L337.097 60.5866L331.1 60.6759C329.097 60.7134 327.084 60.7055 325.076 60.7198L324.721 60.7222L324.72 60.3639L324.677 50.2828L324.675 49.8822L325.076 49.8838L337.004 49.9341C340.981 49.938 344.956 50.0234 348.933 50.0649L349.152 50.0673L349.151 50.2828C349.135 51.9897 349.082 53.6886 349.046 55.37L348.933 60.3639ZM348.933 60.3639L348.82 55.2767C348.784 53.5985 348.731 51.9362 348.716 50.2828L348.933 50.5006C344.957 50.5413 340.981 50.6275 337.005 50.6315L325.076 50.6818L325.475 50.2836L325.432 60.3647L325.076 60.0088C327.044 60.0232 329.007 60.0152 330.981 60.0527L336.912 60.1421L348.933 60.3639Z" fill="#EBEBEB"/>
<path d="M287.832 178.303L275.995 178.525L269.998 178.615C267.996 178.652 265.983 178.645 263.974 178.659L263.62 178.661L263.618 178.303L263.575 168.222L263.574 167.821L263.974 167.823L275.903 167.873C279.879 167.877 283.855 167.963 287.831 168.004L288.051 168.006L288.049 168.222C288.034 169.929 287.981 171.627 287.945 173.309L287.832 178.303ZM287.832 178.303L287.719 173.215C287.683 171.536 287.63 169.875 287.614 168.222L287.832 168.439C283.856 168.48 279.879 168.566 275.904 168.57L263.975 168.621L264.373 168.222L264.33 178.304L263.974 177.948C265.942 177.962 267.906 177.955 269.88 177.992L275.811 178.082L287.832 178.303Z" fill="#EBEBEB"/>
<path d="M274.523 191.015L262.686 191.238L256.689 191.327C254.686 191.364 252.674 191.356 250.665 191.371L250.311 191.373L250.309 191.015L250.266 180.934L250.265 180.533L250.665 180.535L262.594 180.585C266.57 180.589 270.546 180.675 274.522 180.716L274.742 180.718L274.74 180.934C274.725 182.641 274.672 184.34 274.636 186.021L274.523 191.015ZM274.523 191.015L274.41 185.928C274.374 184.249 274.32 182.587 274.305 180.934L274.523 181.152C270.547 181.192 266.571 181.278 262.595 181.282L250.666 181.333L251.064 180.935L251.021 191.016L250.665 190.66C252.633 190.674 254.597 190.666 256.571 190.704L262.502 190.793L274.523 191.015Z" fill="#EBEBEB"/>
<path d="M261.268 178.303L249.431 178.525L243.434 178.615C241.431 178.652 239.418 178.645 237.41 178.659L237.055 178.661L237.054 178.303L237.011 168.222L237.009 167.821L237.41 167.823L249.338 167.873C253.315 167.877 257.29 167.963 261.267 168.004L261.486 168.006L261.485 168.222C261.469 169.929 261.416 171.627 261.38 173.309L261.268 178.303ZM261.268 178.303L261.154 173.215C261.118 171.536 261.065 169.875 261.05 168.222L261.268 168.439C257.291 168.48 253.315 168.566 249.339 168.57L237.411 168.621L237.809 168.222L237.766 178.304L237.41 177.948C239.378 177.962 241.342 177.955 243.315 177.992L249.247 178.082L261.268 178.303Z" fill="#EBEBEB"/>
<path d="M362.242 265.794L350.405 266.016L344.408 266.106C342.405 266.143 340.392 266.136 338.384 266.15L338.03 266.152L338.028 265.794L337.985 255.713L337.983 255.312L338.384 255.314L350.312 255.364C354.289 255.368 358.265 255.453 362.241 255.495L362.46 255.497L362.459 255.713C362.444 257.42 362.39 259.119 362.354 260.8L362.242 265.794ZM362.242 265.794L362.128 260.707C362.092 259.028 362.039 257.366 362.024 255.713L362.242 255.931C358.265 255.971 354.29 256.057 350.313 256.061L338.385 256.112L338.783 255.714L338.74 265.795L338.384 265.439C340.352 265.453 342.316 265.445 344.289 265.483L350.221 265.572L362.242 265.794Z" fill="#EBEBEB"/>
<path d="M159.541 77.6302L147.704 77.8529L141.707 77.9423C139.704 77.9798 137.692 77.9718 135.683 77.9861L135.329 77.9885L135.327 77.6302L135.284 67.5491L135.283 67.1485L135.683 67.1501L147.612 67.2004C151.588 67.2044 155.564 67.2898 159.54 67.3313L159.76 67.3336L159.758 67.5491C159.743 69.256 159.689 70.955 159.653 72.6364L159.541 77.6302ZM159.541 77.6302L159.428 72.543C159.392 70.8648 159.338 69.2026 159.323 67.5491L159.541 67.767C155.565 67.8077 151.589 67.8938 147.612 67.8978L135.684 67.9481L136.082 67.5499L136.039 77.631L135.683 77.2751C137.651 77.2895 139.615 77.2815 141.588 77.319L147.52 77.4084L159.541 77.6302Z" fill="#EBEBEB"/>
<path d="M337.734 144.415L342.431 136.841L340.112 135.405C339.429 134.982 339.06 134.211 339.128 133.411C339.166 132.969 339.18 132.525 339.171 132.079C339.153 131.278 339.571 130.534 340.277 130.155L342.681 128.866L338.468 121.01L336.064 122.299C335.359 122.677 334.507 122.614 333.85 122.156C333.484 121.902 333.106 121.667 332.717 121.454C332.013 121.069 331.575 120.334 331.601 119.532L331.687 116.805L322.779 116.528L322.697 119.265C322.673 120.068 322.181 120.766 321.454 121.109C321.257 121.203 321.062 121.301 320.869 121.405C320.675 121.508 320.485 121.617 320.299 121.729C319.615 122.143 318.765 122.167 318.086 121.746L315.749 120.299L311.052 127.872L313.375 129.314C314.057 129.738 314.426 130.51 314.357 131.309C314.319 131.749 314.304 132.193 314.313 132.636C314.33 133.435 313.912 134.18 313.207 134.557L310.802 135.847L315.015 143.703L317.42 142.413C318.125 142.035 318.976 142.099 319.633 142.555C319.997 142.808 320.375 143.041 320.762 143.252C321.467 143.637 321.906 144.372 321.881 145.174L321.797 147.908L330.706 148.185L330.791 145.45C330.816 144.65 331.306 143.954 332.029 143.612C332.227 143.519 332.424 143.419 332.62 143.314C332.813 143.211 333.004 143.102 333.191 142.99C333.878 142.575 334.731 142.551 335.415 142.974L337.734 144.415ZM330.192 138.791C326.639 140.696 322.218 139.361 320.312 135.808C318.407 132.256 319.738 127.828 323.291 125.923C326.844 124.017 331.275 125.355 333.18 128.907C335.085 132.461 333.744 136.886 330.192 138.791Z" fill="#EBEBEB"/>
<path d="M81.0209 230.231L85.7188 222.657L83.399 221.22C82.7167 220.797 82.3472 220.026 82.4158 219.227C82.4541 218.784 82.4677 218.34 82.4581 217.894C82.4406 217.093 82.8587 216.349 83.5642 215.971L85.9685 214.681L81.7551 206.825L79.3515 208.114C78.6461 208.493 77.7946 208.429 77.1379 207.972C76.7716 207.717 76.3933 207.482 76.0047 207.269C75.3009 206.884 74.8628 206.149 74.8883 205.348L74.9745 202.62L66.0664 202.343L65.9842 205.08C65.9603 205.883 65.4679 206.581 64.7417 206.925C64.5446 207.017 64.3491 207.116 64.156 207.22C63.9621 207.324 63.7722 207.432 63.5862 207.545C62.9023 207.958 62.0525 207.982 61.3734 207.561L59.0368 206.114L54.339 213.688L56.6628 215.13C57.3443 215.553 57.7138 216.325 57.6443 217.125C57.606 217.565 57.5917 218.008 57.6004 218.452C57.6172 219.25 57.199 219.995 56.4944 220.372L54.0892 221.662L58.3027 229.518L60.7078 228.229C61.4125 227.851 62.2631 227.914 62.9199 228.37C63.2846 228.623 63.662 228.856 64.0499 229.067C64.7545 229.452 65.1934 230.187 65.1687 230.989L65.0849 233.723L73.993 234L74.0783 231.265C74.1031 230.466 74.5938 229.77 75.3168 229.428C75.5147 229.335 75.7118 229.235 75.9074 229.131C76.1013 229.027 76.2912 228.918 76.4779 228.806C77.1658 228.391 78.0189 228.367 78.702 228.791L81.0209 230.231ZM73.4782 224.607C69.9255 226.512 65.5046 225.177 63.599 221.625C61.6934 218.072 63.0244 213.645 66.5779 211.739C70.1306 209.833 74.5611 211.171 76.4668 214.723C78.3724 218.277 77.0309 222.701 73.4782 224.607Z" fill="#EBEBEB"/>
<path d="M172.263 85.1769L169.142 79.7689L167.487 80.7249C167.001 81.0066 166.402 80.9794 165.931 80.6722C165.671 80.5022 165.401 80.3466 165.123 80.2046C164.623 79.9508 164.302 79.4457 164.302 78.8855V76.9751H158.057V78.8863C158.057 79.4465 157.735 79.9516 157.236 80.2054C156.957 80.3466 156.687 80.503 156.427 80.673C155.956 80.9794 155.358 81.0074 154.871 80.7257L153.216 79.7697L150.096 85.1777L151.758 86.1345C152.246 86.4154 152.514 86.9501 152.485 87.5119C152.477 87.6643 152.473 87.8175 152.473 87.9715C152.473 88.1255 152.477 88.2788 152.485 88.4312C152.514 88.9906 152.247 89.5228 151.763 89.8029L150.096 90.7661L153.216 96.1742L154.876 95.2174C155.363 94.9365 155.962 94.9644 156.433 95.2716C156.692 95.4408 156.96 95.5964 157.238 95.7377C157.737 95.9922 158.057 96.4966 158.057 97.0568V98.9688H164.303V97.0568C164.303 96.4966 164.623 95.9922 165.122 95.7377C165.399 95.5964 165.668 95.4408 165.927 95.2716C166.397 94.9644 166.997 94.9365 167.483 95.2174L169.143 96.1742L172.263 90.7661L170.604 89.8085C170.118 89.5284 169.851 88.9954 169.879 88.4352C169.887 88.2819 169.89 88.1279 169.89 87.9723C169.89 87.8183 169.886 87.6651 169.879 87.5127C169.85 86.9509 170.118 86.4154 170.606 86.1345L172.263 85.1769ZM166.294 87.9715C166.294 90.7956 164.006 93.0835 161.182 93.0835C158.358 93.0835 156.065 90.7956 156.065 87.9715C156.065 85.1474 158.358 82.8547 161.182 82.8547C164.006 82.8547 166.294 85.1474 166.294 87.9715Z" fill="#EBEBEB"/>
<path d="M70.8904 242.464C60.4613 252.674 58.7113 268.469 60.909 282.304C60.9657 282.617 61.4516 282.532 61.4516 282.237C61.4516 279.088 61.3567 275.967 61.3663 272.855C61.4229 272.713 61.4708 272.579 61.5282 272.436C64.2494 270.457 66.752 268.221 68.3033 265.157C70.0445 261.732 70.7292 257.868 72.0618 254.291C72.1855 253.948 71.82 254.049 71.5814 254.225C65.2381 258.903 63.216 263.939 61.3958 270.666C61.4812 267.174 61.7477 263.682 62.4994 260.19C63.8696 253.806 66.5812 247.478 71.1681 242.74C71.3381 242.559 71.0715 242.283 70.8904 242.464Z" fill="#263238"/>
<path d="M72.8503 243.654C74.6442 243.715 75.7694 246.582 77.1675 247.419C77.9072 247.864 78.6278 247.837 79.1473 247.108C80.5326 245.174 78.6318 242.788 76.8443 241.454C78.1227 241.98 79.1832 242.903 80.5614 243.165C81.3961 243.318 82.0448 243.009 82.2395 242.16C82.8468 239.524 79.5399 238.351 77.2712 238.296C78.3708 237.531 81.5237 235.452 79.8487 234.43C78.1514 233.404 74.4519 236.376 73.2453 237.355C71.4721 238.794 69.3566 240.944 69.2768 243.194C69.1731 245.822 71.4697 244.206 72.8503 243.654Z" fill="#FFC727"/>
<path opacity="0.1" d="M72.8503 243.654C74.6442 243.715 75.7694 246.582 77.1675 247.419C77.9072 247.864 78.6278 247.837 79.1473 247.108C80.5326 245.174 78.6318 242.788 76.8443 241.454C78.1227 241.98 79.1832 242.903 80.5614 243.165C81.3961 243.318 82.0448 243.009 82.2395 242.16C82.8468 239.524 79.5399 238.351 77.2712 238.296C78.3708 237.531 81.5237 235.452 79.8487 234.43C78.1514 233.404 74.4519 236.376 73.2453 237.355C71.4721 238.794 69.3566 240.944 69.2768 243.194C69.1731 245.822 71.4697 244.206 72.8503 243.654Z" fill="black"/>
<path d="M72.3315 244.097C74.6258 243.054 79.0316 244.555 79.4066 243.687C80.1663 241.92 76.6447 240.707 74.7439 240.473C76.4947 239.999 79.8487 239.243 79.7458 237.554C79.6197 235.493 74.6011 237.265 72.061 239.213C68.861 241.667 68.8818 244.035 69.4109 244.509C70.1363 245.16 71.9525 244.269 72.3315 244.097Z" fill="#FFC727"/>
<path d="M47.1403 241.453C57.9492 251.259 60.3001 266.976 58.6299 280.885C58.5852 281.201 58.0968 281.134 58.0856 280.839C57.9659 277.692 57.942 274.569 57.8143 271.461C57.7521 271.321 57.6994 271.19 57.6364 271.049C54.8418 269.174 52.2563 267.036 50.59 264.033C48.7195 260.676 47.888 256.842 46.4213 253.317C46.2848 252.98 46.6535 253.066 46.8993 253.233C53.4157 257.667 55.6286 262.622 57.7034 269.275C57.4847 265.788 57.0857 262.309 56.2024 258.848C54.5904 252.52 51.6402 246.3 46.8769 241.74C46.6974 241.566 46.9527 241.279 47.1403 241.453Z" fill="#263238"/>
<path d="M45.2275 242.717C43.4368 242.846 42.4225 245.754 41.0571 246.643C40.3349 247.117 39.6143 247.117 39.0669 246.408C37.609 244.528 39.4172 242.072 41.1529 240.67C39.8952 241.244 38.8706 242.207 37.5036 242.522C36.6753 242.706 36.0154 242.422 35.7879 241.582C35.0809 238.97 38.3407 237.672 40.6055 237.531C39.4771 236.809 36.2476 234.851 37.8827 233.766C39.5393 232.676 43.3498 235.505 44.5923 236.438C46.4189 237.808 48.6142 239.876 48.7802 242.122C48.9837 244.743 46.628 243.215 45.2275 242.717Z" fill="#FFC727"/>
<path opacity="0.1" d="M45.2275 242.717C43.4368 242.846 42.4225 245.754 41.0571 246.643C40.3349 247.117 39.6143 247.117 39.0669 246.408C37.609 244.528 39.4172 242.072 41.1529 240.67C39.8952 241.244 38.8706 242.207 37.5036 242.522C36.6753 242.706 36.0154 242.422 35.7879 241.582C35.0809 238.97 38.3407 237.672 40.6055 237.531C39.4771 236.809 36.2476 234.851 37.8827 233.766C39.5393 232.676 43.3498 235.505 44.5923 236.438C46.4189 237.808 48.6142 239.876 48.7802 242.122C48.9837 244.743 46.628 243.215 45.2275 242.717Z" fill="black"/>
<path d="M45.7629 243.139C43.4312 242.184 39.0845 243.852 38.6775 242.999C37.8516 241.262 41.3237 239.917 43.2141 239.61C41.4465 239.203 38.0662 238.576 38.1053 236.885C38.1524 234.82 43.2349 236.4 45.8475 238.25C49.1385 240.58 49.2079 242.947 48.6972 243.441C47.9965 244.119 46.1476 243.297 45.7629 243.139Z" fill="#FFC727"/>
<path d="M58.1942 267.351C58.9922 272.519 59.9817 277.862 61.5505 282.855C61.7006 283.31 62.3757 283.193 62.3063 282.703C61.596 277.925 60.3017 273.235 59.5923 268.458C58.8709 263.623 58.4854 258.722 58.7623 253.833C59.2172 245.782 61.4037 237.217 66.6577 230.917C66.7735 230.768 66.5285 230.557 66.4096 230.695C55.8911 242.959 57.5645 257.996 57.5741 259.344C56.085 254.266 54.5505 248.447 48.9182 243.277C48.6756 243.053 48.4857 243.159 48.5264 243.538C49.5335 252.956 52.1517 257.872 57.6116 262.907C57.7648 264.399 57.9572 265.884 58.1942 267.351Z" fill="#263238"/>
<path d="M66.7511 232.327C68.6432 231.487 71.2534 233.896 73.1255 234.061C74.1166 234.15 74.8508 233.759 75.0232 232.741C75.4876 230.037 72.314 228.519 69.7875 228.034C71.3787 227.936 72.9436 228.36 74.5053 227.938C75.4485 227.677 75.9656 227.029 75.7414 226.051C75.0439 223.009 71.0228 223.457 68.6408 224.542C69.3973 223.195 71.6213 219.451 69.3693 219.234C67.0918 219.023 64.7497 223.969 63.99 225.592C62.8744 227.978 61.762 231.273 62.8122 233.649C64.0275 236.427 65.5964 233.594 66.7511 232.327Z" fill="#FFC727"/>
<path opacity="0.1" d="M66.7511 232.327C68.6432 231.487 71.2534 233.896 73.1255 234.061C74.1166 234.15 74.8508 233.759 75.0232 232.741C75.4876 230.037 72.314 228.519 69.7875 228.034C71.3787 227.936 72.9436 228.36 74.5053 227.938C75.4485 227.677 75.9656 227.029 75.7414 226.051C75.0439 223.009 71.0228 223.457 68.6408 224.542C69.3973 223.195 71.6213 219.451 69.3693 219.234C67.0918 219.023 64.7497 223.969 63.99 225.592C62.8744 227.978 61.762 231.273 62.8122 233.649C64.0275 236.427 65.5964 233.594 66.7511 232.327Z" fill="black"/>
<path d="M66.4351 233.048C68.2905 230.811 73.6179 230.15 73.5692 229.061C73.4679 226.846 69.2042 227.361 67.1134 228.073C68.6911 226.7 71.7905 224.228 70.8337 222.528C69.6654 220.452 65.3506 224.818 63.6956 228.118C61.6104 232.275 62.8234 234.721 63.6118 234.946C64.6931 235.255 66.1295 233.417 66.4351 233.048Z" fill="#FFC727"/>
<path d="M51.2739 270.185L46.6351 305.629H74.8636C74.2818 302.488 69.0278 270.145 69.0278 270.145L51.2739 270.185Z" fill="#FFC727"/>
<path d="M34.6124 305.748L75.8339 305.554L117.056 305.484L199.5 305.35L281.944 305.483L323.165 305.553L364.388 305.748L323.165 305.944L281.944 306.014L199.5 306.146L117.056 306.013L75.8339 305.942L34.6124 305.748Z" fill="#263238"/>
<path d="M199.5 375.152C265.193 375.152 318.447 367.622 318.447 358.334C318.447 349.046 265.193 341.516 199.5 341.516C133.807 341.516 80.5525 349.046 80.5525 358.334C80.5525 367.622 133.807 375.152 199.5 375.152Z" fill="#EBEBEB"/>
<path d="M125.743 181.682L120.788 162.187L81.6561 172.133L76.4843 151.784L107.756 80.5126L123.267 76.5705L138.348 135.909L150.87 132.727L156.078 153.218L143.555 156.4L148.51 175.895L125.743 181.682ZM98.9321 145.927L118.285 141.009L111.884 115.822L98.9321 145.927Z" fill="#263238"/>
<path d="M237.821 116.602C237.821 123.063 236.841 129.009 234.884 134.441C232.925 139.874 230.233 144.572 226.808 148.537C223.38 152.501 219.343 155.584 214.695 157.786C210.045 159.989 204.979 161.09 199.498 161.09C194.015 161.09 188.927 159.989 184.229 157.786C179.53 155.584 175.467 152.5 172.042 148.537C168.615 144.572 165.949 139.874 164.041 134.441C162.132 129.009 161.178 123.063 161.178 116.602C161.178 110.142 162.132 104.196 164.041 98.7637C165.95 93.3309 168.615 88.6331 172.042 84.6686C175.467 80.7041 179.53 77.5983 184.229 75.3456C188.927 73.0952 194.015 71.9684 199.498 71.9684C204.979 71.9684 210.044 73.0952 214.695 75.3456C219.343 77.5983 223.38 80.7041 226.808 84.6686C230.233 88.6331 232.925 93.3309 234.884 98.7637C236.841 104.196 237.821 110.142 237.821 116.602ZM214.182 116.602C214.182 109.752 212.81 104.196 210.07 99.9375C207.328 95.6802 203.806 93.5511 199.499 93.5511C194.996 93.5511 191.399 95.6802 188.708 99.9375C186.015 104.196 184.67 109.752 184.67 116.602C184.67 123.455 186.015 128.986 188.708 133.193C191.399 137.403 194.996 139.507 199.499 139.507C203.806 139.507 207.328 137.404 210.07 133.193C212.811 128.986 214.182 123.455 214.182 116.602Z" fill="#263238"/>
<path d="M279.973 177.925L283.189 158.069L243.333 151.612L246.691 130.886L303.755 77.959L319.553 80.5182L309.761 140.956L322.516 143.022L319.135 163.892L306.38 161.826L303.163 181.682L279.973 177.925ZM269.614 134.452L289.324 137.645L293.48 111.992L269.614 134.452Z" fill="#263238"/>
<path d="M166.523 57.8239C164.846 57.8239 163.326 57.4959 161.961 56.8407C160.596 56.1856 159.425 55.315 158.448 54.2297C157.469 53.1452 156.712 51.9035 156.175 50.507C155.638 49.1105 155.369 47.6813 155.369 46.2194C155.369 44.6936 155.653 43.2324 156.223 41.8351C156.792 40.4386 157.577 39.2025 158.576 38.1276C159.575 37.0527 160.763 36.1989 162.138 35.5645C163.513 34.9309 165.007 34.614 166.619 34.614C168.274 34.614 169.783 34.9524 171.149 35.6291C172.513 36.3058 173.679 37.1924 174.646 38.2888C175.613 39.3853 176.365 40.6318 176.903 42.0283C177.44 43.4256 177.709 44.8436 177.709 46.284C177.709 47.8106 177.429 49.2653 176.871 50.6522C176.312 52.0384 175.538 53.2633 174.55 54.327C173.561 55.3908 172.379 56.2398 171.004 56.8735C169.628 57.5071 168.135 57.8239 166.523 57.8239ZM159.882 46.2186C159.882 47.2073 160.032 48.1641 160.333 49.0874C160.633 50.0115 161.068 50.8286 161.638 51.5372C162.207 52.2467 162.906 52.8156 163.734 53.2457C164.56 53.6759 165.501 53.8905 166.555 53.8905C167.629 53.8905 168.58 53.6703 169.407 53.2298C170.235 52.7901 170.933 52.2036 171.503 51.4726C172.072 50.7424 172.502 49.9205 172.793 49.0068C173.083 48.0931 173.227 47.1642 173.227 46.2178C173.227 45.2298 173.071 44.273 172.76 43.349C172.448 42.4249 172.007 41.6085 171.438 40.8991C170.869 40.1897 170.17 39.6263 169.344 39.2065C168.516 38.7876 167.586 38.5777 166.555 38.5777C165.48 38.5777 164.524 38.798 163.686 39.2385C162.848 39.679 162.15 40.2591 161.591 40.9789C161.032 41.6995 160.608 42.5158 160.317 43.4288C160.027 44.3441 159.882 45.2729 159.882 46.2186Z" fill="#263238"/>
<path d="M188.508 57.9851C187.133 57.9851 185.897 57.7489 184.802 57.2757C183.705 56.8032 182.776 56.1632 182.013 55.3581C181.25 54.5521 180.664 53.6224 180.255 52.569C179.847 51.5165 179.643 50.4089 179.643 49.2486C179.643 48.0667 179.847 46.9495 180.255 45.8962C180.663 44.8436 181.25 43.9139 182.013 43.108C182.776 42.302 183.705 41.6628 184.802 41.1896C185.897 40.7172 187.133 40.4801 188.508 40.4801C189.883 40.4801 191.114 40.7172 192.2 41.1896C193.284 41.6628 194.209 42.302 194.972 43.108C195.735 43.9139 196.321 44.8436 196.729 45.8962C197.137 46.9495 197.341 48.0667 197.341 49.2486C197.341 50.4089 197.137 51.5165 196.729 52.569C196.321 53.6224 195.741 54.5513 194.989 55.3581C194.236 56.164 193.312 56.804 192.217 57.2757C191.119 57.7481 189.883 57.9851 188.508 57.9851ZM184.091 49.2486C184.091 50.0011 184.205 50.6834 184.43 51.2954C184.656 51.9083 184.967 52.4398 185.364 52.8914C185.762 53.3423 186.229 53.6918 186.766 53.9392C187.303 54.1866 187.884 54.3103 188.508 54.3103C189.131 54.3103 189.711 54.1866 190.248 53.9392C190.785 53.6926 191.253 53.3431 191.65 52.8914C192.047 52.4398 192.36 51.9027 192.585 51.2795C192.81 50.6562 192.923 49.9692 192.923 49.2167C192.923 48.4865 192.81 47.8098 192.585 47.1857C192.359 46.5625 192.047 46.0254 191.65 45.5738C191.252 45.1221 190.784 44.7734 190.248 44.526C189.711 44.2786 189.131 44.1549 188.508 44.1549C187.884 44.1549 187.303 44.2842 186.766 44.542C186.229 44.7997 185.762 45.1548 185.364 45.6057C184.966 46.0574 184.655 46.5944 184.43 47.2177C184.204 47.8417 184.091 48.5184 184.091 49.2486Z" fill="#263238"/>
<path d="M210.363 57.9851C209.031 57.9851 207.87 57.6898 206.882 57.0985C205.894 56.508 205.12 55.7076 204.561 54.6973V64.5295H200.241V40.7706H204.013V43.6714C204.636 42.6834 205.442 41.9038 206.431 41.334C207.419 40.765 208.558 40.4801 209.847 40.4801C210.986 40.4801 212.039 40.7116 213.006 41.1736C213.973 41.6357 214.806 42.2589 215.505 43.0433C216.203 43.8278 216.751 44.7518 217.149 45.8156C217.547 46.8793 217.746 48.0029 217.746 49.1847C217.746 50.4097 217.563 51.5596 217.197 52.6337C216.832 53.7086 216.321 54.6439 215.666 55.4387C215.01 56.2343 214.231 56.8567 213.329 57.3084C212.427 57.7592 211.438 57.9851 210.363 57.9851ZM208.913 54.3103C209.558 54.3103 210.154 54.1706 210.702 53.8913C211.25 53.612 211.717 53.2362 212.104 52.763C212.491 52.2906 212.792 51.7423 213.007 51.1183C213.222 50.495 213.329 49.8511 213.329 49.1847C213.329 48.4753 213.211 47.8146 212.975 47.2025C212.738 46.5896 212.411 46.0582 211.992 45.6065C211.573 45.1556 211.078 44.8005 210.509 44.5428C209.939 44.285 209.322 44.1557 208.656 44.1557C208.248 44.1557 207.829 44.226 207.399 44.3656C206.969 44.5053 206.572 44.704 206.206 44.9625C205.841 45.2203 205.514 45.5219 205.223 45.8651C204.934 46.209 204.713 46.5856 204.563 46.9934V50.9587C204.95 51.9259 205.541 52.7263 206.336 53.3599C207.129 53.9935 207.989 54.3103 208.913 54.3103Z" fill="#263238"/>
<path d="M227.062 57.9851C225.644 57.9851 224.257 57.7592 222.904 57.3084C221.55 56.8575 220.389 56.2119 219.422 55.374L221.034 52.6664C222.066 53.3974 223.071 53.9504 224.048 54.3263C225.026 54.7029 225.998 54.8904 226.966 54.8904C227.824 54.8904 228.502 54.7292 228.997 54.4068C229.49 54.0845 229.738 53.6224 229.738 53.0207C229.738 52.419 229.448 51.9785 228.867 51.6992C228.287 51.4199 227.341 51.0975 226.03 50.7321C224.935 50.4312 223.999 50.1407 223.225 49.8614C222.451 49.5821 221.828 49.2653 221.356 48.9102C220.882 48.5559 220.539 48.1473 220.324 47.6853C220.108 47.2233 220.002 46.6694 220.002 46.0247C220.002 45.1652 220.168 44.3919 220.502 43.7033C220.835 43.0162 221.302 42.4297 221.904 41.9461C222.506 41.4625 223.21 41.0922 224.015 40.8345C224.821 40.5767 225.696 40.4474 226.642 40.4474C227.91 40.4474 229.097 40.6302 230.205 40.9957C231.311 41.3611 232.327 41.9517 233.251 42.7688L231.509 45.3799C230.65 44.7351 229.818 44.2627 229.011 43.9618C228.205 43.661 227.404 43.511 226.61 43.511C225.879 43.511 225.266 43.6618 224.772 43.9618C224.277 44.2627 224.03 44.7463 224.03 45.4126C224.03 45.7134 224.089 45.9608 224.208 46.1539C224.325 46.347 224.514 46.5194 224.772 46.6694C225.03 46.8203 225.368 46.9655 225.787 47.1043C226.206 47.2448 226.727 47.3892 227.35 47.5393C228.511 47.8401 229.504 48.141 230.332 48.4418C231.159 48.7426 231.836 49.0866 232.362 49.4728C232.889 49.8598 233.276 50.3059 233.524 50.8103C233.77 51.3154 233.894 51.9227 233.894 52.6321C233.894 54.2871 233.282 55.5927 232.056 56.5487C230.834 57.5071 229.168 57.9851 227.062 57.9851Z" fill="#263238"/>
<path d="M237.538 49.0555V34.5486H241.858V49.0555H237.538ZM237.538 57.6627V52.7949H241.858V57.6627H237.538Z" fill="#263238"/>
<path d="M215.94 250.448H187.601V252.77H215.94V250.448Z" fill="#37474F"/>
<path d="M215.94 253.472H187.601V255.793H215.94V253.472Z" fill="#37474F"/>
<path d="M215.94 256.496H187.601V258.818H215.94V256.496Z" fill="#37474F"/>
<path d="M215.94 259.52H187.601V261.841H215.94V259.52Z" fill="#37474F"/>
<path d="M215.94 262.544H187.601V264.865H215.94V262.544Z" fill="#37474F"/>
<path d="M228.207 322.866H174.329V325.187H228.207V322.866Z" fill="#37474F"/>
<path d="M228.207 325.89H174.329V328.211H228.207V325.89Z" fill="#37474F"/>
<path d="M228.207 328.913H174.329V331.235H228.207V328.913Z" fill="#37474F"/>
<path d="M228.207 331.937H174.329V334.258H228.207V331.937Z" fill="#37474F"/>
<path d="M228.207 334.961H174.329V337.283H228.207V334.961Z" fill="#37474F"/>
<path d="M150.69 231.259C150.716 230.945 138.897 226.986 138.897 226.986L139.596 186.379L155.268 183.017L150.69 231.259Z" fill="#FFC727"/>
<path opacity="0.2" d="M150.69 231.259C150.716 230.945 138.897 226.986 138.897 226.986L139.596 186.379L155.268 183.017L150.69 231.259Z" fill="black"/>
<path d="M258.942 247.198C259.025 246.894 271.485 247.244 271.485 247.244L284.804 208.877L271.247 200.327L258.942 247.198Z" fill="#FFC727"/>
<path opacity="0.2" d="M258.942 247.198C259.025 246.894 271.485 247.244 271.485 247.244L284.804 208.877L271.247 200.327L258.942 247.198Z" fill="black"/>
<path d="M148.414 246.212C148.414 246.212 152.796 180.538 156.639 158.934C156.639 158.934 235.974 164.934 278.802 181.303C278.802 181.303 256.722 258.013 255.579 261.82C255.579 261.82 199.713 250.815 148.414 246.212Z" fill="#FFC727"/>
<path opacity="0.1" d="M219.228 167.704C217.939 175.611 216.633 183.516 215.282 191.413L211.193 215.097L210.973 214.763L237.555 221.077L250.832 224.295L264.094 227.576L250.762 224.592L237.445 221.546L210.839 215.331L210.57 215.268L210.619 214.996L214.852 191.337C216.275 183.453 217.744 175.577 219.228 167.704Z" fill="black"/>
<path opacity="0.1" d="M216.311 172.211C216.326 172.935 215.748 173.68 214.918 173.753C214.516 173.791 214.079 173.662 213.751 173.377C213.424 173.093 213.229 172.654 213.226 172.211C213.229 171.768 213.423 171.328 213.751 171.043C214.077 170.756 214.516 170.63 214.918 170.667C215.749 170.74 216.326 171.486 216.311 172.211ZM216.311 172.211C216.308 171.845 216.146 171.486 215.874 171.256C215.601 171.025 215.244 170.931 214.919 170.968C214.249 171.046 213.815 171.647 213.825 172.211C213.815 172.775 214.248 173.379 214.919 173.455C215.244 173.492 215.602 173.397 215.875 173.167C216.146 172.935 216.308 172.576 216.311 172.211Z" fill="black"/>
<path opacity="0.1" d="M214.918 181.982C214.933 182.707 214.355 183.452 213.525 183.524C213.123 183.562 212.685 183.434 212.358 183.149C212.031 182.864 211.835 182.425 211.833 181.982C211.835 181.539 212.029 181.1 212.357 180.815C212.684 180.528 213.123 180.401 213.525 180.439C214.356 180.512 214.933 181.259 214.918 181.982ZM214.918 181.982C214.915 181.617 214.753 181.258 214.481 181.027C214.208 180.796 213.85 180.702 213.526 180.74C212.856 180.817 212.422 181.418 212.432 181.982C212.421 182.547 212.855 183.151 213.526 183.226C213.85 183.263 214.209 183.169 214.482 182.938C214.754 182.708 214.915 182.348 214.918 181.982Z" fill="black"/>
<path opacity="0.1" d="M213.202 192.308C213.217 193.032 212.639 193.778 211.809 193.849C211.407 193.888 210.97 193.76 210.642 193.474C210.315 193.189 210.12 192.751 210.117 192.308C210.12 191.865 210.314 191.425 210.642 191.14C210.968 190.853 211.407 190.727 211.809 190.764C212.641 190.838 213.218 191.583 213.202 192.308ZM213.202 192.308C213.199 191.942 213.037 191.583 212.765 191.352C212.492 191.122 212.135 191.028 211.81 191.065C211.14 191.143 210.706 191.743 210.716 192.308C210.705 192.872 211.139 193.476 211.81 193.552C212.135 193.589 212.493 193.494 212.766 193.264C213.037 193.032 213.199 192.673 213.202 192.308Z" fill="black"/>
<path opacity="0.1" d="M211.487 202.633C211.502 203.358 210.923 204.102 210.093 204.175C209.691 204.212 209.254 204.085 208.927 203.8C208.6 203.515 208.404 203.076 208.402 202.633C208.403 202.19 208.599 201.75 208.926 201.465C209.252 201.178 209.691 201.052 210.093 201.09C210.925 201.162 211.502 201.908 211.487 202.633ZM211.487 202.633C211.484 202.267 211.322 201.908 211.049 201.678C210.776 201.447 210.418 201.353 210.093 201.39C209.424 201.468 208.99 202.069 208.999 202.633C208.989 203.197 209.422 203.801 210.093 203.877C210.418 203.914 210.777 203.82 211.049 203.589C211.322 203.358 211.484 202.998 211.487 202.633Z" fill="black"/>
<path opacity="0.1" d="M217.333 219.1C217.348 219.824 216.77 220.569 215.94 220.641C215.537 220.679 215.1 220.551 214.773 220.266C214.446 219.981 214.25 219.543 214.248 219.1C214.249 218.657 214.444 218.217 214.772 217.932C215.098 217.645 215.537 217.519 215.94 217.556C216.77 217.629 217.347 218.375 217.333 219.1ZM217.333 219.1C217.33 218.734 217.168 218.375 216.895 218.144C216.622 217.914 216.264 217.82 215.94 217.857C215.27 217.935 214.836 218.536 214.846 219.1C214.835 219.664 215.268 220.268 215.94 220.344C216.264 220.381 216.623 220.286 216.896 220.055C217.168 219.824 217.329 219.465 217.333 219.1Z" fill="black"/>
<path opacity="0.1" d="M227.079 221.477C227.094 222.202 226.515 222.947 225.686 223.019C225.283 223.056 224.846 222.928 224.519 222.644C224.192 222.359 223.996 221.92 223.994 221.477C223.996 221.034 224.191 220.594 224.518 220.309C224.844 220.022 225.283 219.896 225.686 219.934C226.517 220.007 227.094 220.752 227.079 221.477ZM227.079 221.477C227.076 221.111 226.914 220.752 226.642 220.522C226.369 220.291 226.011 220.197 225.686 220.234C225.017 220.312 224.583 220.913 224.592 221.477C224.582 222.041 225.015 222.645 225.686 222.721C226.011 222.758 226.369 222.664 226.642 222.432C226.914 222.202 227.076 221.842 227.079 221.477Z" fill="black"/>
<path opacity="0.1" d="M236.826 223.855C236.84 224.58 236.262 225.324 235.432 225.397C235.03 225.434 234.593 225.307 234.266 225.022C233.938 224.737 233.743 224.298 233.741 223.855C233.743 223.412 233.937 222.972 234.265 222.688C234.591 222.4 235.03 222.274 235.432 222.312C236.263 222.384 236.84 223.13 236.826 223.855ZM236.826 223.855C236.822 223.489 236.66 223.13 236.388 222.9C236.115 222.669 235.758 222.575 235.433 222.612C234.764 222.69 234.329 223.291 234.339 223.855C234.329 224.419 234.762 225.023 235.433 225.099C235.758 225.136 236.116 225.042 236.389 224.81C236.66 224.58 236.822 224.22 236.826 223.855Z" fill="black"/>
<path opacity="0.1" d="M246.572 226.232C246.587 226.957 246.008 227.701 245.178 227.774C244.776 227.811 244.339 227.685 244.012 227.399C243.684 227.114 243.489 226.675 243.487 226.232C243.489 225.789 243.683 225.35 244.011 225.065C244.337 224.777 244.776 224.651 245.178 224.689C246.01 224.761 246.586 225.508 246.572 226.232ZM246.572 226.232C246.568 225.867 246.406 225.508 246.134 225.277C245.861 225.046 245.504 224.952 245.179 224.99C244.51 225.067 244.075 225.668 244.085 226.232C244.075 226.796 244.508 227.4 245.179 227.476C245.504 227.513 245.862 227.419 246.135 227.188C246.406 226.957 246.568 226.598 246.572 226.232Z" fill="black"/>
<path opacity="0.1" d="M256.314 228.716C256.273 229.44 255.639 230.138 254.806 230.146C254.402 230.154 253.976 229.992 253.671 229.683C253.367 229.373 253.205 228.921 253.237 228.479C253.273 228.038 253.501 227.615 253.85 227.356C254.198 227.095 254.645 227.002 255.043 227.071C255.867 227.207 256.384 227.996 256.314 228.716ZM256.314 228.716C256.338 228.352 256.204 227.981 255.95 227.73C255.696 227.479 255.346 227.357 255.02 227.37C254.347 227.396 253.867 227.961 253.833 228.525C253.779 229.087 254.165 229.722 254.829 229.85C255.149 229.912 255.514 229.846 255.804 229.636C256.093 229.427 256.282 229.081 256.314 228.716Z" fill="black"/>
<path opacity="0.1" d="M209.771 212.958C209.785 213.683 209.208 214.428 208.378 214.5C207.976 214.538 207.538 214.411 207.211 214.125C206.884 213.84 206.688 213.401 206.686 212.958C206.688 212.515 206.883 212.076 207.21 211.791C207.537 211.504 207.976 211.377 208.378 211.415C209.209 211.488 209.786 212.234 209.771 212.958ZM209.771 212.958C209.768 212.593 209.606 212.234 209.333 212.003C209.06 211.772 208.703 211.678 208.378 211.716C207.708 211.793 207.274 212.394 207.284 212.958C207.273 213.522 207.707 214.127 208.378 214.202C208.703 214.239 209.061 214.145 209.333 213.913C209.607 213.683 209.768 213.324 209.771 212.958Z" fill="black"/>
<path opacity="0.2" d="M193.358 230.067C202.61 221.748 203.366 207.504 195.047 198.252C186.729 189 172.485 188.244 163.233 196.562C153.981 204.881 153.225 219.125 161.543 228.377C169.862 237.629 184.106 238.385 193.358 230.067Z" fill="black"/>
<path d="M195.185 219.711C198.718 210.379 194.016 199.951 184.685 196.418C175.353 192.886 164.924 197.588 161.392 206.919C157.86 216.251 162.561 226.68 171.893 230.212C181.225 233.744 191.653 229.043 195.185 219.711Z" fill="#263238"/>
<path d="M177.206 206.672L172.983 205.988L172.299 210.212L176.522 210.896L177.206 206.672Z" fill="#FFC727"/>
<path d="M173.666 201.765L169.443 201.081L168.759 205.304L172.982 205.988L173.666 201.765Z" fill="#FFC727"/>
<path d="M190.561 204.501L186.338 203.817L185.653 208.041L189.877 208.725L190.561 204.501Z" fill="#FFC727"/>
<path d="M170.945 218.564L166.721 217.88L166.037 222.103L170.261 222.787L170.945 218.564Z" fill="#FFC727"/>
<path d="M187.84 221.3L183.616 220.616L182.932 224.84L187.156 225.524L187.84 221.3Z" fill="#FFC727"/>
<path d="M175.853 215.025L171.629 214.341L170.945 218.564L175.169 219.248L175.853 215.025Z" fill="#FFC727"/>
<path d="M180.754 211.533L176.53 210.849L175.846 215.072L180.069 215.756L180.754 211.533Z" fill="#FFC727"/>
<path d="M185.654 208.041L181.43 207.356L180.746 211.58L184.97 212.264L185.654 208.041Z" fill="#FFC727"/>
<path d="M184.305 216.39L180.081 215.706L179.397 219.93L183.621 220.614L184.305 216.39Z" fill="#FFC727"/>
<path d="M256.18 237.023C264.066 227.399 262.657 213.204 253.033 205.318C243.409 197.433 229.215 198.842 221.329 208.466C213.443 218.09 214.852 232.284 224.476 240.17C234.1 248.056 248.294 246.646 256.18 237.023Z" fill="#FFC727"/>
<path opacity="0.2" d="M256.18 237.023C264.066 227.399 262.657 213.204 253.033 205.318C243.409 197.433 229.215 198.842 221.329 208.466C213.443 218.09 214.852 232.284 224.476 240.17C234.1 248.056 248.294 246.646 256.18 237.023Z" fill="black"/>
<path opacity="0.2" d="M260.675 227.966C260.571 228.41 260.453 228.838 260.32 229.267L216.407 219.901C216.511 219.117 216.651 218.334 216.836 217.543C219.712 205.441 231.857 197.96 243.967 200.835C256.069 203.711 263.551 215.857 260.675 227.966Z" fill="black"/>
<path d="M245.716 239.428C254.923 235.582 259.269 224.999 255.422 215.792C251.576 206.585 240.993 202.24 231.786 206.086C222.579 209.933 218.234 220.515 222.08 229.722C225.927 238.929 236.509 243.275 245.716 239.428Z" fill="#263238"/>
<path d="M243.303 212.883L239.14 211.893L234.216 232.614L238.379 233.603L243.303 212.883Z" fill="#FFC727"/>
<path d="M261.982 227.543L215.857 216.58C218.883 203.846 231.664 195.978 244.399 199.004C257.134 202.031 265.009 214.808 261.982 227.543Z" fill="#FFC727"/>
<path opacity="0.2" d="M261.982 227.543L215.857 216.58C218.883 203.846 231.664 195.978 244.399 199.004C257.134 202.031 265.009 214.808 261.982 227.543Z" fill="black"/>
<path opacity="0.1" d="M199.557 236.146C199.673 234.345 200.335 232.518 201.641 231.074C202.285 230.346 203.144 229.775 204.091 229.427C205.042 229.077 206.07 229.016 207.044 229.099C208.036 229.214 209.049 229.564 209.876 230.189C210.686 230.828 211.308 231.66 211.673 232.556C212.426 234.342 212.508 236.251 212.143 238.021C211.843 236.252 211.386 234.534 210.555 233.124C209.731 231.703 208.427 230.819 206.873 230.682C205.289 230.485 203.742 230.91 202.496 231.963C201.251 233.012 200.3 234.515 199.557 236.146Z" fill="black"/>
<path d="M154.585 190.195C154.772 187.789 155.043 185.393 155.271 182.992C155.527 180.595 155.79 178.198 156.082 175.807C156.358 173.413 156.67 171.023 156.977 168.633C157.277 166.242 157.623 163.857 157.944 161.469L158.029 160.831L158.676 160.872C163.874 161.199 169.061 161.619 174.241 162.152C176.83 162.418 179.417 162.719 182 163.051C184.578 163.421 187.16 163.762 189.724 164.232L174.149 163.268L158.59 162.261L159.322 161.664C158.969 164.048 158.64 166.435 158.266 168.815C157.897 171.197 157.534 173.579 157.137 175.956C156.753 178.335 156.343 180.71 155.924 183.084C155.477 185.454 155.073 187.831 154.585 190.195Z" fill="white"/>
<path d="M158.332 208.402C158.855 205.509 160.17 202.752 161.937 200.351C162.376 199.747 162.877 199.189 163.358 198.614C163.879 198.076 164.421 197.556 164.955 197.029C165.539 196.555 166.128 196.085 166.726 195.629C167.362 195.226 167.99 194.805 168.637 194.418C169.317 194.091 169.994 193.754 170.681 193.443L172.821 192.703L175.036 192.245C175.78 192.137 176.536 192.114 177.282 192.058C180.286 191.98 183.242 192.621 185.956 193.72C183.068 193.179 180.19 192.879 177.353 193.15C174.523 193.413 171.773 194.259 169.315 195.644C166.837 196.997 164.643 198.862 162.789 201.03C160.943 203.208 159.415 205.676 158.332 208.402Z" fill="white"/>
<path d="M220.477 214.488C221.395 211.694 223.078 209.145 225.159 207.011C225.678 206.474 226.251 205.99 226.807 205.487C227.396 205.027 228.005 204.586 228.608 204.137C229.251 203.748 229.899 203.364 230.555 202.995C231.24 202.684 231.92 202.354 232.615 202.06C233.334 201.83 234.051 201.59 234.774 201.377L236.996 200.939L239.254 200.792C240.006 200.786 240.757 200.869 241.503 200.916C244.49 201.254 247.328 202.297 249.864 203.76C247.078 202.825 244.27 202.13 241.423 202.007C238.584 201.878 235.744 202.336 233.117 203.369C230.477 204.366 228.045 205.911 225.91 207.802C223.779 209.705 221.925 211.937 220.477 214.488Z" fill="white"/>
<path d="M150.934 286.683C145.163 286.683 132.529 285.386 124.399 274.933C113.998 261.56 117.758 235.899 117.922 234.813L122.438 235.499C122.4 235.745 118.812 260.308 128.005 272.128C136.993 283.684 153.295 282.025 153.459 282.005L153.972 286.543C153.795 286.565 152.677 286.683 150.934 286.683Z" fill="#FFC727"/>
<path opacity="0.4" d="M150.934 286.683C145.163 286.683 132.529 285.386 124.399 274.933C113.998 261.56 117.758 235.899 117.922 234.813L122.438 235.499C122.4 235.745 118.812 260.308 128.005 272.128C136.993 283.684 153.295 282.025 153.459 282.005L153.972 286.543C153.795 286.565 152.677 286.683 150.934 286.683Z" fill="white"/>
<path d="M123.767 238.606C122.944 238.606 122.103 238.537 121.247 238.399C113.629 237.165 110.256 232.607 108.768 229C107.277 225.385 106.932 221.012 107.744 216.003L117.404 217.569C116.901 220.672 117.047 223.406 117.815 225.267C118.363 226.595 119.425 228.19 122.811 228.738C124.358 228.988 126.03 228.856 127.781 226.215C129.132 224.177 129.944 221.404 130.228 219.646L139.889 221.211C139.665 222.593 138.718 227.429 135.937 231.623C132.912 236.186 128.655 238.606 123.767 238.606Z" fill="#FFC727"/>
<path d="M160.478 299.755C160.461 299.547 152.293 298.242 152.293 298.242L148.329 271.585L158.222 267.677L160.478 299.755Z" fill="#FFC727"/>
<path opacity="0.2" d="M160.478 299.755C160.461 299.547 152.293 298.242 152.293 298.242L148.329 271.585L158.222 267.677L160.478 299.755Z" fill="black"/>
<path d="M241.232 299.805C241.254 299.597 249.448 298.473 249.448 298.473L254.001 271.91L244.197 267.784L241.232 299.805Z" fill="#FFC727"/>
<path opacity="0.2" d="M241.232 299.805C241.254 299.597 249.448 298.473 249.448 298.473L254.001 271.91L244.197 267.784L241.232 299.805Z" fill="black"/>
<path d="M157.079 261.708C157.079 261.708 223.142 258.883 245.458 262.603C245.458 262.603 238.905 326.527 238.551 327.767C238.551 327.767 172.835 327.59 162.562 327.767C162.562 327.767 156.995 285.26 157.079 261.708Z" fill="#FFC727"/>
<path opacity="0.2" d="M177.146 279.225C177.146 279.225 213.21 277.801 225.393 279.676C225.393 279.676 221.815 311.91 221.622 312.535C221.622 312.535 185.747 312.446 180.14 312.535C180.138 312.535 177.674 290.474 177.146 279.225Z" fill="black"/>
<path opacity="0.2" d="M182.075 312.522C181.249 312.522 180.595 312.532 180.136 312.537C180.136 312.537 177.675 290.472 177.143 279.223C177.143 279.223 177.964 279.191 179.396 279.144L182.075 312.522Z" fill="black"/>
<path d="M192.712 287.179C190.691 286.542 188.537 287.664 187.9 289.684C187.263 291.707 188.386 293.859 190.408 294.496C192.427 295.132 194.579 294.011 195.216 291.99C195.852 289.971 194.732 287.815 192.712 287.179ZM194.771 291.849C194.212 293.626 192.321 294.61 190.547 294.051C188.773 293.492 187.788 291.602 188.348 289.826C188.907 288.052 190.798 287.066 192.573 287.626C194.345 288.185 195.33 290.075 194.771 291.849ZM192.712 287.179C190.691 286.542 188.537 287.664 187.9 289.684C187.263 291.707 188.386 293.859 190.408 294.496C192.427 295.132 194.579 294.011 195.216 291.99C195.852 289.971 194.732 287.815 192.712 287.179ZM194.771 291.849C194.212 293.626 192.321 294.61 190.547 294.051C188.773 293.492 187.788 291.602 188.348 289.826C188.907 288.052 190.798 287.066 192.573 287.626C194.345 288.185 195.33 290.075 194.771 291.849ZM192.712 287.179C190.691 286.542 188.537 287.664 187.9 289.684C187.263 291.707 188.386 293.859 190.408 294.496C192.427 295.132 194.579 294.011 195.216 291.99C195.852 289.971 194.732 287.815 192.712 287.179ZM194.771 291.849C194.212 293.626 192.321 294.61 190.547 294.051C188.773 293.492 187.788 291.602 188.348 289.826C188.907 288.052 190.798 287.066 192.573 287.626C194.345 288.185 195.33 290.075 194.771 291.849ZM193.991 283.126C189.728 281.784 185.19 284.152 183.847 288.408C182.506 292.666 184.869 297.207 189.129 298.549C193.385 299.889 197.927 297.525 199.269 293.267C200.612 289.011 198.247 284.467 193.991 283.126ZM195.786 292.169C195.051 294.501 192.558 295.8 190.228 295.065C187.898 294.331 186.599 291.838 187.333 289.506C188.068 287.173 190.562 285.876 192.893 286.61C195.221 287.345 196.52 289.838 195.786 292.169ZM195.216 291.991C195.852 289.971 194.732 287.816 192.712 287.179C190.691 286.543 188.537 287.665 187.9 289.684C187.263 291.708 188.386 293.86 190.408 294.496C192.427 295.133 194.579 294.012 195.216 291.991ZM194.771 291.849C194.212 293.626 192.321 294.61 190.547 294.051C188.773 293.492 187.788 291.602 188.348 289.826C188.907 288.052 190.798 287.066 192.573 287.626C194.345 288.185 195.33 290.075 194.771 291.849ZM192.712 287.179C190.691 286.542 188.537 287.664 187.9 289.684C187.263 291.707 188.386 293.859 190.408 294.496C192.427 295.132 194.579 294.011 195.216 291.99C195.852 289.971 194.732 287.815 192.712 287.179ZM194.771 291.849C194.212 293.626 192.321 294.61 190.547 294.051C188.773 293.492 187.788 291.602 188.348 289.826C188.907 288.052 190.798 287.066 192.573 287.626C194.345 288.185 195.33 290.075 194.771 291.849ZM192.712 287.179C190.691 286.542 188.537 287.664 187.9 289.684C187.263 291.707 188.386 293.859 190.408 294.496C192.427 295.132 194.579 294.011 195.216 291.99C195.852 289.971 194.732 287.815 192.712 287.179ZM194.771 291.849C194.212 293.626 192.321 294.61 190.547 294.051C188.773 293.492 187.788 291.602 188.348 289.826C188.907 288.052 190.798 287.066 192.573 287.626C194.345 288.185 195.33 290.075 194.771 291.849Z" fill="#FFC727"/>
<path d="M190.712 298.695L187.748 297.761L187.25 299.912L189.887 300.742L190.712 298.695Z" fill="#FFC727"/>
<path d="M185.384 295.918L183.948 293.161L182.076 294.33L183.352 296.783L185.384 295.918Z" fill="#FFC727"/>
<path d="M183.58 290.186L184.514 287.222L182.364 286.725L181.532 289.361L183.58 290.186Z" fill="#FFC727"/>
<path d="M186.357 284.858L189.114 283.422L187.945 281.55L185.493 282.827L186.357 284.858Z" fill="#FFC727"/>
<path d="M192.088 283.054L195.053 283.988L195.551 281.838L192.914 281.007L192.088 283.054Z" fill="#FFC727"/>
<path d="M197.417 285.831L198.853 288.588L200.726 287.42L199.448 284.967L197.417 285.831Z" fill="#FFC727"/>
<path d="M199.221 291.563L198.287 294.527L200.438 295.025L201.268 292.388L199.221 291.563Z" fill="#FFC727"/>
<path d="M196.444 296.891L193.687 298.328L194.856 300.2L197.308 298.923L196.444 296.891Z" fill="#FFC727"/>
<path d="M205.752 298.462C204.557 297.683 202.957 298.022 202.179 299.216C201.399 300.413 201.739 302.011 202.935 302.79C204.129 303.568 205.727 303.23 206.506 302.034C207.284 300.84 206.947 299.24 205.752 298.462ZM206.243 301.863C205.559 302.914 204.155 303.21 203.105 302.527C202.056 301.843 201.759 300.439 202.443 299.389C203.126 298.339 204.531 298.043 205.581 298.727C206.629 299.41 206.926 300.813 206.243 301.863ZM205.752 298.462C204.557 297.683 202.957 298.022 202.179 299.216C201.399 300.413 201.739 302.011 202.935 302.79C204.129 303.568 205.727 303.23 206.506 302.034C207.284 300.84 206.947 299.24 205.752 298.462ZM206.243 301.863C205.559 302.914 204.155 303.21 203.105 302.527C202.056 301.843 201.759 300.439 202.443 299.389C203.126 298.339 204.531 298.043 205.581 298.727C206.629 299.41 206.926 300.813 206.243 301.863ZM205.752 298.462C204.557 297.683 202.957 298.022 202.179 299.216C201.399 300.413 201.739 302.011 202.935 302.79C204.129 303.568 205.727 303.23 206.506 302.034C207.284 300.84 206.947 299.24 205.752 298.462ZM206.243 301.863C205.559 302.914 204.155 303.21 203.105 302.527C202.056 301.843 201.759 300.439 202.443 299.389C203.126 298.339 204.531 298.043 205.581 298.727C206.629 299.41 206.926 300.813 206.243 301.863ZM207.314 296.065C204.792 294.424 201.422 295.139 199.781 297.656C198.141 300.176 198.852 303.548 201.372 305.188C203.89 306.827 207.263 306.114 208.903 303.596C210.543 301.078 209.832 297.704 207.314 296.065ZM206.843 302.254C205.945 303.633 204.093 304.025 202.715 303.127C201.337 302.23 200.944 300.378 201.843 298.999C202.741 297.619 204.594 297.229 205.972 298.126C207.349 299.023 207.741 300.875 206.843 302.254ZM206.506 302.034C207.284 300.84 206.947 299.24 205.752 298.462C204.557 297.684 202.957 298.023 202.179 299.216C201.399 300.413 201.739 302.012 202.935 302.791C204.129 303.569 205.727 303.23 206.506 302.034ZM206.243 301.863C205.559 302.914 204.155 303.21 203.105 302.527C202.056 301.843 201.759 300.439 202.443 299.389C203.126 298.339 204.531 298.043 205.581 298.727C206.629 299.41 206.926 300.813 206.243 301.863ZM205.752 298.462C204.557 297.683 202.957 298.022 202.179 299.216C201.399 300.413 201.739 302.011 202.935 302.79C204.129 303.568 205.727 303.23 206.506 302.034C207.284 300.84 206.947 299.24 205.752 298.462ZM206.243 301.863C205.559 302.914 204.155 303.21 203.105 302.527C202.056 301.843 201.759 300.439 202.443 299.389C203.126 298.339 204.531 298.043 205.581 298.727C206.629 299.41 206.926 300.813 206.243 301.863ZM205.752 298.462C204.557 297.683 202.957 298.022 202.179 299.216C201.399 300.413 201.739 302.011 202.935 302.79C204.129 303.568 205.727 303.23 206.506 302.034C207.284 300.84 206.947 299.24 205.752 298.462ZM206.243 301.863C205.559 302.914 204.155 303.21 203.105 302.527C202.056 301.843 201.759 300.439 202.443 299.389C203.126 298.339 204.531 298.043 205.581 298.727C206.629 299.41 206.926 300.813 206.243 301.863Z" fill="#DBDBDB"/>
<path d="M202.373 305.569L200.619 304.427L199.908 305.731L201.468 306.747L202.373 305.569Z" fill="#DBDBDB"/>
<path d="M199.419 302.804L198.987 300.757L197.561 301.176L197.946 302.997L199.419 302.804Z" fill="#DBDBDB"/>
<path d="M199.286 298.761L200.428 297.007L199.123 296.296L198.107 297.856L199.286 298.761Z" fill="#DBDBDB"/>
<path d="M202.05 295.807L204.098 295.375L203.678 293.95L201.857 294.334L202.05 295.807Z" fill="#DBDBDB"/>
<path d="M206.094 295.674L207.847 296.816L208.559 295.511L206.999 294.496L206.094 295.674Z" fill="#DBDBDB"/>
<path d="M209.047 298.438L209.48 300.486L210.905 300.066L210.52 298.245L209.047 298.438Z" fill="#DBDBDB"/>
<path d="M209.181 302.482L208.039 304.236L209.343 304.947L210.359 303.387L209.181 302.482Z" fill="#DBDBDB"/>
<path d="M206.416 305.435L204.369 305.868L204.788 307.293L206.609 306.908L206.416 305.435Z" fill="#DBDBDB"/>
<path d="M243.864 320.328L246.403 320.801L253.664 271.622L250.771 271.091L243.864 320.328Z" fill="#FFC727"/>
<path d="M221.621 312.535L225.392 279.676L250.771 271.091C250.771 271.091 243.864 320.86 243.864 320.328L221.621 312.535Z" fill="#FFC727"/>
<path opacity="0.4" d="M221.621 312.535L225.392 279.676L250.771 271.091C250.771 271.091 243.864 320.86 243.864 320.328L221.621 312.535Z" fill="white"/>
<path d="M160.111 281.007C159.697 278.285 159.474 275.541 159.304 272.794C159.226 271.42 159.191 270.044 159.16 268.668C159.133 267.292 159.109 265.915 159.15 264.539L159.161 264.177L159.513 264.158C164.555 263.887 169.593 263.556 174.638 263.336C179.682 263.087 184.725 262.861 189.772 262.703C184.741 263.159 179.707 263.547 174.672 263.912C169.638 264.306 164.599 264.588 159.562 264.931L159.925 264.551L159.904 268.66L159.952 272.772C159.959 274.143 159.984 275.514 160.024 276.886L160.111 281.007Z" fill="white"/>
<path d="M228.932 280.158C230.504 279.411 232.101 278.717 233.717 278.076C235.328 277.42 236.953 276.799 238.598 276.229C240.245 275.667 241.898 275.116 243.578 274.649C245.256 274.177 246.949 273.74 248.679 273.457L249.104 273.388L249.029 273.794C248.63 275.921 248.214 278.046 247.722 280.158C247.906 277.997 248.166 275.847 248.445 273.701L248.794 274.038C247.117 274.438 245.454 274.905 243.796 275.395C242.14 275.891 240.488 276.413 238.841 276.949L228.932 280.158Z" fill="white"/>
<path opacity="0.1" d="M171.094 261.841L171.521 270.06L171.887 278.281L172.52 294.726L173.016 311.176L173.214 319.403L173.35 327.632L172.921 319.413L172.556 311.192L171.923 294.747L171.429 278.297L171.23 270.07L171.094 261.841Z" fill="black"/>
<path opacity="0.1" d="M168.739 266.795C168.897 267.503 168.478 268.347 167.679 268.582C167.292 268.699 166.839 268.66 166.461 268.445C166.084 268.23 165.805 267.839 165.716 267.405C165.63 266.97 165.734 266.501 165.999 266.157C166.262 265.811 166.668 265.6 167.069 265.558C167.898 265.465 168.611 266.083 168.739 266.795ZM168.739 266.795C168.664 266.438 168.434 266.118 168.122 265.945C167.809 265.773 167.44 265.752 167.128 265.853C166.488 266.061 166.18 266.735 166.302 267.288C166.403 267.842 166.947 268.349 167.62 268.291C167.945 268.263 168.278 268.1 168.499 267.819C168.721 267.539 168.808 267.154 168.739 266.795Z" fill="black"/>
<path opacity="0.1" d="M169.305 276.65C169.463 277.358 169.044 278.202 168.245 278.437C167.858 278.553 167.404 278.515 167.027 278.299C166.65 278.085 166.371 277.694 166.282 277.26C166.196 276.825 166.3 276.355 166.565 276.011C166.828 275.666 167.234 275.454 167.635 275.412C168.463 275.32 169.177 275.937 169.305 276.65ZM169.305 276.65C169.229 276.292 169 275.972 168.688 275.8C168.375 275.628 168.005 275.606 167.694 275.707C167.053 275.916 166.746 276.591 166.867 277.142C166.969 277.697 167.513 278.204 168.186 278.145C168.511 278.117 168.844 277.954 169.066 277.674C169.287 277.394 169.375 277.009 169.305 276.65Z" fill="black"/>
<path opacity="0.1" d="M169.664 287.111C169.822 287.819 169.403 288.663 168.604 288.898C168.217 289.014 167.764 288.976 167.386 288.76C167.009 288.546 166.73 288.155 166.641 287.72C166.555 287.286 166.659 286.816 166.924 286.472C167.187 286.126 167.593 285.915 167.994 285.873C168.822 285.781 169.536 286.398 169.664 287.111ZM169.664 287.111C169.589 286.753 169.359 286.433 169.047 286.261C168.734 286.089 168.364 286.067 168.053 286.168C167.412 286.377 167.105 287.051 167.226 287.602C167.328 288.158 167.872 288.664 168.545 288.605C168.87 288.578 169.203 288.415 169.424 288.134C169.646 287.854 169.733 287.47 169.664 287.111Z" fill="black"/>
<path opacity="0.1" d="M170.023 297.571C170.181 298.279 169.762 299.123 168.963 299.358C168.576 299.474 168.123 299.436 167.745 299.22C167.368 299.006 167.089 298.615 167 298.181C166.914 297.746 167.018 297.277 167.283 296.933C167.546 296.587 167.951 296.376 168.353 296.333C169.182 296.241 169.895 296.858 170.023 297.571ZM170.023 297.571C169.948 297.213 169.719 296.893 169.406 296.721C169.093 296.549 168.724 296.527 168.412 296.629C167.772 296.837 167.464 297.511 167.586 298.063C167.687 298.618 168.231 299.125 168.904 299.066C169.229 299.039 169.562 298.876 169.783 298.595C170.005 298.315 170.092 297.93 170.023 297.571Z" fill="black"/>
<path opacity="0.1" d="M170.383 308.032C170.541 308.74 170.121 309.584 169.322 309.819C168.935 309.935 168.482 309.897 168.104 309.681C167.727 309.467 167.448 309.076 167.359 308.642C167.274 308.207 167.377 307.738 167.642 307.394C167.906 307.048 168.311 306.837 168.712 306.794C169.541 306.702 170.254 307.319 170.383 308.032ZM170.383 308.032C170.307 307.674 170.077 307.354 169.765 307.182C169.452 307.01 169.083 306.988 168.771 307.09C168.131 307.298 167.823 307.972 167.945 308.524C168.046 309.08 168.59 309.586 169.263 309.527C169.589 309.5 169.921 309.337 170.143 309.056C170.364 308.775 170.451 308.39 170.383 308.032Z" fill="black"/>
<path opacity="0.1" d="M170.742 318.492C170.9 319.2 170.48 320.044 169.681 320.279C169.294 320.395 168.841 320.357 168.463 320.142C168.086 319.927 167.807 319.536 167.718 319.102C167.633 318.668 167.736 318.198 168.001 317.854C168.265 317.507 168.669 317.297 169.071 317.254C169.9 317.162 170.612 317.78 170.742 318.492ZM170.742 318.492C170.666 318.135 170.436 317.815 170.124 317.642C169.811 317.47 169.442 317.448 169.131 317.55C168.49 317.758 168.182 318.432 168.304 318.985C168.405 319.54 168.949 320.046 169.622 319.988C169.948 319.96 170.28 319.796 170.501 319.516C170.723 319.235 170.81 318.851 170.742 318.492Z" fill="black"/>
<path d="M173.971 334.488L136.565 345.823L137.889 350.194L175.295 338.859L173.971 334.488Z" fill="#FFC727"/>
<path opacity="0.4" d="M173.971 334.488L136.565 345.823L137.889 350.194L175.295 338.859L173.971 334.488Z" fill="white"/>
<path d="M156.074 338.427L151.722 339.812L153.778 346.277L158.13 344.892L156.074 338.427Z" fill="#FFC727"/>
<path d="M137.597 356.597L127.944 314.798L98.8091 321.706L113.156 362.441L137.597 356.597Z" fill="#FFC727"/>
<path d="M144.061 354.472L137.597 356.597L127.944 314.798L137.242 317.012L144.061 354.472Z" fill="#FFC727"/>
<path opacity="0.2" d="M144.061 354.472L137.597 356.597L127.944 314.798L137.242 317.012L144.061 354.472Z" fill="black"/>
<path d="M174.649 341.63C177.388 341.63 179.608 339.41 179.608 336.671C179.608 333.933 177.388 331.713 174.649 331.713C171.911 331.713 169.691 333.933 169.691 336.671C169.691 339.41 171.911 341.63 174.649 341.63Z" fill="#FFC727"/>
<path d="M225.676 334.367L224.342 338.735L261.725 350.148L263.059 345.78L225.676 334.367Z" fill="#FFC727"/>
<path opacity="0.4" d="M225.676 334.367L224.342 338.735L261.725 350.148L263.059 345.78L225.676 334.367Z" fill="white"/>
<path d="M243.599 338.326L241.529 344.786L245.878 346.18L247.948 339.72L243.599 338.326Z" fill="#FFC727"/>
<path d="M262.029 356.561L271.771 314.782L300.891 321.752L286.458 362.457L262.029 356.561Z" fill="#FFC727"/>
<path d="M255.569 354.421L262.029 356.561L271.771 314.782L262.468 316.977L255.569 354.421Z" fill="#FFC727"/>
<path opacity="0.2" d="M255.569 354.421L262.029 356.561L271.771 314.782L262.468 316.977L255.569 354.421Z" fill="black"/>
<path d="M220.06 336.546C220.054 339.285 222.269 341.51 225.008 341.516C227.747 341.522 229.972 339.306 229.978 336.568C229.984 333.829 227.768 331.604 225.03 331.598C222.29 331.591 220.065 333.807 220.06 336.546Z" fill="#FFC727"/>
<path d="M257.485 284.991C257.602 284.881 269.617 273.737 283.751 277.549C298.205 281.449 310.138 303.218 310.256 303.439L314.273 301.267C313.751 300.301 301.305 277.548 284.939 273.141C268.296 268.652 254.901 281.148 254.339 281.683L257.485 284.991Z" fill="#FFC727"/>
<path opacity="0.4" d="M257.485 284.991C257.602 284.881 269.617 273.737 283.751 277.549C298.205 281.449 310.138 303.218 310.256 303.439L314.273 301.267C313.751 300.301 301.305 277.548 284.939 273.141C268.296 268.652 254.901 281.148 254.339 281.683L257.485 284.991Z" fill="white"/>
<path d="M304.93 325.354L313.585 320.785C312.755 319.212 311.732 316.508 311.583 314.067C311.391 310.904 312.646 309.792 314.031 309.06C317.063 307.458 318.873 308.093 320.109 308.821C321.843 309.845 323.607 311.94 325.074 314.72L333.729 310.151C331.361 305.664 328.452 302.381 325.084 300.393C321.723 298.412 316.286 296.803 309.461 300.405C304.142 303.213 301.426 308.276 301.815 314.661C302.12 319.685 304.277 324.116 304.93 325.354Z" fill="#FFC727"/>
<path d="M259.309 269.742C261.185 268.446 263.105 267.225 265.033 266.015C266.955 264.798 268.909 263.634 270.864 262.471C272.827 261.324 274.792 260.179 276.789 259.087L279.784 257.451C280.798 256.93 281.797 256.387 282.823 255.887C281.89 256.543 280.929 257.153 279.983 257.788L277.101 259.615C275.178 260.832 273.224 261.995 271.269 263.157C269.304 264.303 267.34 265.448 265.343 266.54C263.351 267.641 261.352 268.729 259.309 269.742Z" fill="#263238"/>
<path d="M254.339 288.416C257.025 289.946 259.571 291.674 262.083 293.449C264.581 295.245 267.044 297.089 269.364 299.132C266.676 297.603 264.131 295.875 261.62 294.098C259.123 292.302 256.661 290.458 254.339 288.416Z" fill="#263238"/>
<path d="M258.751 286.119C260.824 286.749 262.865 287.46 264.901 288.184C266.941 288.899 268.958 289.673 270.974 290.447C272.985 291.239 274.994 292.032 276.981 292.883L279.961 294.161C280.943 294.614 281.936 295.042 282.909 295.519C281.87 295.211 280.849 294.855 279.819 294.526L276.758 293.455C274.719 292.739 272.701 291.966 270.686 291.191C268.676 290.399 266.666 289.605 264.68 288.754C262.69 287.91 260.705 287.056 258.751 286.119Z" fill="#263238"/>
<path d="M264.641 271.493C266.628 270.977 268.629 270.547 270.634 270.129C272.636 269.703 274.65 269.339 276.663 268.975C278.68 268.629 280.697 268.285 282.725 268.002L285.767 267.58C286.786 267.468 287.8 267.329 288.824 267.241C287.832 267.508 286.832 267.723 285.835 267.965L282.831 268.606C280.828 269.031 278.815 269.396 276.801 269.759C274.784 270.103 272.768 270.448 270.74 270.73C268.714 271.023 266.684 271.302 264.641 271.493Z" fill="#263238"/>
<path d="M216.754 283.918C217.091 282.304 217.633 280.73 218.334 279.23C219.035 277.731 219.894 276.294 220.971 275.016C222.052 273.752 223.381 272.637 224.981 272.021C226.581 271.425 228.412 271.429 230.017 272.07C231.641 272.703 232.922 274.067 233.612 275.636C233.97 276.42 234.195 277.26 234.287 278.12C234.368 278.978 234.334 279.87 233.992 280.727C233.818 281.148 233.546 281.573 233.11 281.857C232.9 282.004 232.642 282.087 232.389 282.126C232.14 282.162 231.884 282.151 231.594 282.051C231.06 281.823 230.793 281.394 230.563 281.007C230.358 280.605 230.2 280.193 230.092 279.777C229.644 278.112 229.598 276.418 229.677 274.743C229.915 271.406 230.791 268.069 232.589 265.198C233.496 263.779 234.634 262.473 236.049 261.518C237.446 260.557 239.081 259.896 240.75 259.704C241.571 259.506 242.42 259.524 243.258 259.483C243.679 259.439 244.096 259.541 244.515 259.562C244.931 259.617 245.357 259.61 245.762 259.731C247.42 260.028 248.978 260.694 250.434 261.499C251.881 262.333 253.17 263.404 254.346 264.566C255.512 265.74 256.572 267.024 257.424 268.438C255.537 265.744 253.107 263.406 250.242 261.841C248.8 261.091 247.277 260.476 245.672 260.227C245.28 260.118 244.87 260.137 244.469 260.092C244.066 260.08 243.665 259.988 243.261 260.043C242.456 260.102 241.645 260.098 240.859 260.309C239.25 260.536 237.758 261.183 236.444 262.085C235.124 262.988 234.06 264.227 233.204 265.584C231.51 268.328 230.68 271.57 230.474 274.79C230.383 276.4 230.424 278.046 230.826 279.574C231.019 280.305 231.364 281.129 231.868 281.36C231.932 281.366 231.975 281.4 232.054 281.403C232.132 281.396 232.216 281.414 232.29 281.395C232.441 281.37 232.589 281.329 232.716 281.238C232.978 281.074 233.185 280.782 233.325 280.447C233.605 279.768 233.656 278.964 233.586 278.189C233.508 277.41 233.308 276.635 232.986 275.917C232.354 274.482 231.235 273.242 229.784 272.633C228.341 272.021 226.652 271.971 225.154 272.492C223.649 273.032 222.349 274.07 221.265 275.272C219.091 277.706 217.625 280.751 216.754 283.918Z" fill="#263238"/>
<path d="M143.015 304.599C143.785 303.147 144.918 301.891 146.24 300.899C147.561 299.906 149.077 299.136 150.709 298.758C152.332 298.37 154.075 298.363 155.699 298.857C157.324 299.343 158.788 300.295 159.959 301.509C161.139 302.722 162.02 304.195 162.626 305.762C163.221 307.331 163.577 309.013 163.451 310.732C163.366 311.578 163.194 312.492 162.525 313.224C162.193 313.584 161.68 313.821 161.18 313.829C160.7 313.825 160.246 313.754 159.805 313.518C159.367 313.292 159.016 312.9 158.816 312.466C158.612 312.031 158.536 311.57 158.516 311.125C158.484 310.231 158.677 309.382 158.939 308.575C159.475 306.957 160.354 305.5 161.382 304.179C162.415 302.86 163.632 301.685 164.995 300.707C167.698 298.744 171.142 297.653 174.502 298.093C176.16 298.317 177.806 298.796 179.257 299.642C180.721 300.46 181.991 301.595 183.026 302.893C184.06 304.196 184.866 305.66 185.487 307.186C186.108 308.713 186.566 310.306 186.791 311.933C186.121 308.735 184.806 305.629 182.711 303.151C181.674 301.912 180.423 300.849 179.004 300.1C177.597 299.323 176.019 298.907 174.43 298.729C171.238 298.382 168 299.399 165.425 301.305C162.853 303.197 160.748 305.837 159.685 308.824C159.434 309.569 159.259 310.348 159.282 311.098C159.3 311.842 159.562 312.557 160.159 312.859C160.441 313.021 160.823 313.084 161.157 313.09C161.48 313.081 161.767 312.952 161.998 312.714C162.464 312.228 162.664 311.433 162.735 310.67C162.86 309.111 162.537 307.498 161.98 306.008C161.415 304.514 160.575 303.121 159.49 301.955C158.407 300.791 157.042 299.883 155.533 299.389C154.025 298.887 152.373 298.845 150.802 299.178C147.66 299.846 144.749 301.811 143.015 304.599Z" fill="#263238"/>
<path d="M106.097 111.886C106.006 108.602 105.31 105.296 103.782 102.415C103.016 100.988 102.001 99.6702 100.669 98.7868C99.3382 97.9234 97.6864 97.5683 96.1391 97.8188C94.5853 98.063 93.2024 99.0007 92.2464 100.243C91.762 100.864 91.383 101.567 91.1212 102.306C90.8675 103.042 90.7254 103.835 90.8355 104.56C90.8906 104.919 91.0223 105.251 91.2377 105.474C91.3399 105.593 91.4731 105.667 91.6144 105.728C91.6822 105.764 91.7676 105.767 91.8418 105.792C91.9184 105.808 91.9679 105.784 92.0325 105.794C92.576 105.69 93.109 104.973 93.4697 104.309C94.2254 102.92 94.658 101.332 94.954 99.7476C95.5214 96.5708 95.4895 93.2247 94.4992 90.1556C93.9932 88.6339 93.2543 87.1759 92.1882 85.9845C91.1276 84.7955 89.8333 83.8107 88.325 83.2067C87.6124 82.814 86.824 82.6249 86.0563 82.3743C85.6773 82.2259 85.2655 82.2195 84.8713 82.1341C84.4715 82.0823 84.0773 81.9658 83.6703 81.9777C82.0528 81.8365 80.4264 82.0703 78.8472 82.4541C75.6911 83.2912 72.7736 84.9814 70.2982 87.1464C71.4633 85.9773 72.7991 84.983 74.2116 84.1212C75.6313 83.2737 77.1379 82.5419 78.7419 82.0767C80.3466 81.6418 82.02 81.3673 83.7006 81.4742C84.1228 81.4534 84.5337 81.5628 84.9511 81.6083C85.3629 81.6865 85.793 81.6873 86.1904 81.8309C86.9948 82.0711 87.8239 82.2554 88.5732 82.6441C90.1485 83.2282 91.5785 84.2608 92.7053 85.5272C93.8512 86.7913 94.6444 88.3314 95.187 89.9258C96.2476 93.1426 96.3018 96.5931 95.7361 99.8896C95.4137 101.535 94.9644 103.169 94.1321 104.68C93.9278 105.058 93.6756 105.421 93.3812 105.762C93.066 106.083 92.7037 106.436 92.1315 106.53C91.8251 106.558 91.5753 106.507 91.3415 106.413C91.1053 106.314 90.8746 106.172 90.7055 105.979C90.3504 105.6 90.1868 105.122 90.1189 104.672C89.9913 103.759 90.1708 102.885 90.4541 102.07C90.7486 101.257 91.1675 100.495 91.7022 99.8194C92.7468 98.4612 94.3164 97.4414 96.0441 97.2147C97.7558 96.9753 99.5353 97.4079 100.947 98.3695C102.353 99.3502 103.379 100.751 104.126 102.236C104.868 103.734 105.358 105.334 105.682 106.957C106.004 108.58 106.155 110.237 106.097 111.886Z" fill="#263238"/>
<path d="M282.309 153.512C279.094 152.834 275.716 152.74 272.559 153.554C270.993 153.965 269.474 154.644 268.304 155.734C267.154 156.825 266.423 158.35 266.305 159.913C266.18 161.48 266.769 163.044 267.755 164.264C268.245 164.88 268.841 165.412 269.497 165.839C270.153 166.257 270.892 166.581 271.623 166.643C271.985 166.673 272.339 166.622 272.606 166.465C272.744 166.394 272.848 166.282 272.94 166.159C272.991 166.101 273.014 166.019 273.056 165.953C273.089 165.883 273.078 165.828 273.103 165.769C273.129 165.216 272.555 164.53 271.994 164.025C270.821 162.967 269.376 162.175 267.905 161.518C264.949 160.225 261.687 159.475 258.471 159.721C256.874 159.859 255.283 160.237 253.876 160.995C252.472 161.748 251.213 162.778 250.274 164.103C249.725 164.705 249.357 165.427 248.935 166.115C248.702 166.449 248.6 166.847 248.425 167.211C248.281 167.588 248.076 167.944 247.994 168.342C247.479 169.882 247.327 171.518 247.331 173.143C247.409 176.407 248.372 179.639 249.899 182.551C249.034 181.146 248.379 179.615 247.871 178.04C247.378 176.462 247.018 174.826 246.94 173.157C246.892 171.495 247.015 169.804 247.512 168.194C247.59 167.779 247.792 167.404 247.934 167.009C248.106 166.627 248.208 166.209 248.44 165.856C248.861 165.13 249.234 164.367 249.787 163.729C250.723 162.333 252.06 161.184 253.554 160.384C255.051 159.564 256.733 159.152 258.411 158.997C261.786 158.717 265.155 159.468 268.228 160.787C269.753 161.485 271.237 162.303 272.511 163.466C272.831 163.752 273.125 164.082 273.388 164.449C273.627 164.829 273.886 165.264 273.843 165.843C273.799 166.147 273.692 166.379 273.546 166.584C273.395 166.791 273.202 166.981 272.975 167.101C272.524 167.358 272.021 167.405 271.567 167.366C270.649 167.277 269.841 166.899 269.114 166.433C268.393 165.957 267.749 165.372 267.217 164.694C266.139 163.362 265.515 161.597 265.697 159.865C265.863 158.145 266.7 156.515 267.963 155.367C269.244 154.228 270.845 153.558 272.464 153.178C274.094 152.807 275.765 152.703 277.418 152.767C279.073 152.831 280.719 153.071 282.309 153.512Z" fill="#263238"/>
<path d="M232.904 101.881C232.358 99.991 232.285 97.9689 232.592 96.0161C232.898 94.0634 233.559 92.1427 234.64 90.4605C235.704 88.7767 237.19 87.3203 238.986 86.3923C240.777 85.457 242.819 85.0508 244.828 85.1123C246.843 85.1665 248.824 85.6884 250.647 86.5199C252.462 87.3634 254.169 88.503 255.489 90.0702C256.119 90.8595 256.727 91.7796 256.764 92.9351C256.78 93.5056 256.548 94.1153 256.139 94.5287C255.733 94.9165 255.291 95.2317 254.733 95.3937C254.184 95.5621 253.573 95.5206 253.051 95.3211C252.525 95.1232 252.082 94.7984 251.698 94.4393C250.933 93.7099 250.391 92.8273 249.943 91.9208C249.054 90.0974 248.587 88.1199 248.362 86.1353C248.142 84.1475 248.199 82.1293 248.544 80.1575C249.211 76.2249 251.238 72.4273 254.466 69.995C256.066 68.8004 257.867 67.8332 259.811 67.3408C261.742 66.8133 263.774 66.72 265.744 66.9602C267.717 67.2044 269.632 67.7765 271.443 68.5578C273.254 69.3398 274.982 70.315 276.542 71.512C273.301 69.3191 269.575 67.7486 265.699 67.3656C263.77 67.1692 261.802 67.3009 259.951 67.8459C258.088 68.3567 256.377 69.3214 254.86 70.5009C253.359 71.7019 252.083 73.179 251.15 74.8588C250.209 76.5346 249.594 78.3867 249.27 80.2844C248.648 84.0733 249.049 88.1088 250.649 91.5777C251.062 92.4307 251.567 93.2503 252.226 93.8831C252.873 94.5135 253.726 94.9269 254.525 94.6739C254.917 94.5718 255.303 94.3012 255.605 94.0156C255.888 93.7259 256.034 93.3508 256.03 92.9383C256.019 92.1004 255.514 91.2457 254.932 90.5267C253.723 89.0743 252.089 87.9611 250.356 87.1488C248.613 86.3404 246.718 85.8464 244.804 85.7595C242.892 85.6717 240.953 86.0396 239.238 86.8894C237.519 87.7305 236.065 89.0879 234.999 90.6951C232.87 93.9142 232.035 98.0455 232.904 101.881Z" fill="#263238"/>
<path d="M140.348 304.774C138.559 304.21 136.654 305.203 136.091 306.99C135.527 308.78 136.52 310.683 138.309 311.247C140.095 311.811 141.999 310.819 142.562 309.03C143.125 307.244 142.134 305.336 140.348 304.774ZM142.169 308.905C141.674 310.476 140.001 311.348 138.432 310.853C136.863 310.358 135.991 308.686 136.487 307.115C136.982 305.545 138.653 304.674 140.225 305.17C141.792 305.664 142.663 307.335 142.169 308.905ZM140.348 304.774C138.559 304.21 136.654 305.203 136.091 306.99C135.527 308.78 136.52 310.683 138.309 311.247C140.095 311.811 141.999 310.819 142.562 309.03C143.125 307.244 142.134 305.336 140.348 304.774ZM142.169 308.905C141.674 310.476 140.001 311.348 138.432 310.853C136.863 310.358 135.991 308.686 136.487 307.115C136.982 305.545 138.653 304.674 140.225 305.17C141.792 305.664 142.663 307.335 142.169 308.905ZM140.348 304.774C138.559 304.21 136.654 305.203 136.091 306.99C135.527 308.78 136.52 310.683 138.309 311.247C140.095 311.811 141.999 310.819 142.562 309.03C143.125 307.244 142.134 305.336 140.348 304.774ZM142.169 308.905C141.674 310.476 140.001 311.348 138.432 310.853C136.863 310.358 135.991 308.686 136.487 307.115C136.982 305.545 138.653 304.674 140.225 305.17C141.792 305.664 142.663 307.335 142.169 308.905ZM141.478 301.188C137.708 300.001 133.693 302.096 132.506 305.861C131.319 309.627 133.41 313.645 137.178 314.832C140.943 316.018 144.961 313.926 146.147 310.159C147.336 306.395 145.244 302.374 141.478 301.188ZM143.066 309.187C142.416 311.251 140.211 312.4 138.15 311.751C136.089 311.101 134.939 308.895 135.589 306.833C136.239 304.77 138.446 303.622 140.507 304.272C142.567 304.921 143.716 307.126 143.066 309.187ZM142.562 309.029C143.125 307.243 142.134 305.336 140.348 304.773C138.559 304.21 136.654 305.202 136.091 306.989C135.527 308.779 136.52 310.682 138.309 311.246C140.095 311.81 141.999 310.818 142.562 309.029ZM142.169 308.905C141.674 310.476 140.001 311.348 138.432 310.853C136.863 310.358 135.991 308.686 136.487 307.115C136.982 305.545 138.653 304.674 140.225 305.17C141.792 305.664 142.663 307.335 142.169 308.905ZM140.348 304.774C138.559 304.21 136.654 305.203 136.091 306.99C135.527 308.78 136.52 310.683 138.309 311.247C140.095 311.811 141.999 310.819 142.562 309.03C143.125 307.244 142.134 305.336 140.348 304.774ZM142.169 308.905C141.674 310.476 140.001 311.348 138.432 310.853C136.863 310.358 135.991 308.686 136.487 307.115C136.982 305.545 138.653 304.674 140.225 305.17C141.792 305.664 142.663 307.335 142.169 308.905ZM140.348 304.774C138.559 304.21 136.654 305.203 136.091 306.99C135.527 308.78 136.52 310.683 138.309 311.247C140.095 311.811 141.999 310.819 142.562 309.03C143.125 307.244 142.134 305.336 140.348 304.774ZM142.169 308.905C141.674 310.476 140.001 311.348 138.432 310.853C136.863 310.358 135.991 308.686 136.487 307.115C136.982 305.545 138.653 304.674 140.225 305.17C141.792 305.664 142.663 307.335 142.169 308.905Z" fill="#455A64"/>
<path d="M138.578 314.961L135.955 314.135L135.516 316.038L137.848 316.772L138.578 314.961Z" fill="#455A64"/>
<path d="M133.865 312.505L132.594 310.065L130.938 311.099L132.067 313.269L133.865 312.505Z" fill="#455A64"/>
<path d="M132.269 307.434L133.095 304.811L131.193 304.372L130.458 306.704L132.269 307.434Z" fill="#455A64"/>
<path d="M134.726 302.72L137.164 301.45L136.13 299.793L133.961 300.923L134.726 302.72Z" fill="#455A64"/>
<path d="M139.795 301.124L142.418 301.95L142.859 300.049L140.525 299.314L139.795 301.124Z" fill="#455A64"/>
<path d="M144.509 303.581L145.779 306.02L147.436 304.986L146.306 302.817L144.509 303.581Z" fill="#455A64"/>
<path d="M146.106 308.651L145.279 311.274L147.182 311.715L147.917 309.381L146.106 308.651Z" fill="#455A64"/>
<path d="M143.649 313.365L141.209 314.635L142.244 316.292L144.413 315.162L143.649 313.365Z" fill="#455A64"/>
<path d="M272.656 281.972C276.253 277.125 275.24 270.278 270.393 266.681C265.544 263.083 258.696 264.096 255.1 268.943C251.502 273.791 252.515 280.639 257.364 284.237C262.21 287.835 269.058 286.822 272.656 281.972ZM267.977 278.5C266.296 280.766 263.1 281.239 260.836 279.559C258.57 277.878 258.097 274.682 259.779 272.416C261.458 270.152 264.655 269.678 266.921 271.36C269.184 273.04 269.657 276.236 267.977 278.5Z" fill="#263238"/>
<path d="M259.321 285.125L255.945 282.62L254.359 285.148L257.361 287.376L259.321 285.125Z" fill="#263238"/>
<path d="M253.74 279.219L253.124 275.061L250.215 275.727L250.762 279.425L253.74 279.219Z" fill="#263238"/>
<path d="M253.969 271.097L256.475 267.722L253.947 266.135L251.719 269.137L253.969 271.097Z" fill="#263238"/>
<path d="M259.875 265.517L264.034 264.901L263.368 261.991L259.669 262.539L259.875 265.517Z" fill="#263238"/>
<path d="M267.997 265.746L271.373 268.252L272.959 265.724L269.957 263.496L267.997 265.746Z" fill="#263238"/>
<path d="M273.578 271.652L274.193 275.81L277.102 275.145L276.555 271.446L273.578 271.652Z" fill="#263238"/>
<path d="M273.349 279.774L270.843 283.15L273.371 284.736L275.599 281.734L273.349 279.774Z" fill="#263238"/>
<path d="M267.443 285.354L263.284 285.97L263.95 288.879L267.648 288.333L267.443 285.354Z" fill="#263238"/>
<path d="M259.962 275.983L262.284 278.911L265.982 278.362L267.355 274.889L265.035 271.962L261.337 272.507L259.962 275.983ZM264.364 274.484C264.891 274.875 265 275.615 264.609 276.141C264.219 276.666 263.478 276.778 262.951 276.386C262.427 275.997 262.317 275.253 262.706 274.729C263.097 274.203 263.84 274.095 264.364 274.484Z" fill="#263238"/>
<path d="M280.851 69.1076C279.286 68.6144 277.619 69.4834 277.125 71.0467C276.632 72.6132 277.501 74.2786 279.066 74.7718C280.629 75.265 282.295 74.3967 282.788 72.8319C283.281 71.2686 282.414 69.6 280.851 69.1076ZM282.444 72.7225C282.011 74.0975 280.548 74.8596 279.174 74.4271C277.801 73.9945 277.038 72.531 277.471 71.1561C277.904 69.7827 279.367 69.0206 280.742 69.4531C282.115 69.8856 282.877 71.3492 282.444 72.7225ZM280.851 69.1076C279.286 68.6144 277.619 69.4834 277.125 71.0467C276.632 72.6132 277.501 74.2786 279.066 74.7718C280.629 75.265 282.295 74.3967 282.788 72.8319C283.281 71.2686 282.414 69.6 280.851 69.1076ZM282.444 72.7225C282.011 74.0975 280.548 74.8596 279.174 74.4271C277.801 73.9945 277.038 72.531 277.471 71.1561C277.904 69.7827 279.367 69.0206 280.742 69.4531C282.115 69.8856 282.877 71.3492 282.444 72.7225ZM280.851 69.1076C279.286 68.6144 277.619 69.4834 277.125 71.0467C276.632 72.6132 277.501 74.2786 279.066 74.7718C280.629 75.265 282.295 74.3967 282.788 72.8319C283.281 71.2686 282.414 69.6 280.851 69.1076ZM282.444 72.7225C282.011 74.0975 280.548 74.8596 279.174 74.4271C277.801 73.9945 277.038 72.531 277.471 71.1561C277.904 69.7827 279.367 69.0206 280.742 69.4531C282.115 69.8856 282.877 71.3492 282.444 72.7225ZM281.841 65.9706C278.542 64.9317 275.028 66.7647 273.989 70.0588C272.951 73.3545 274.78 76.8705 278.078 77.9087C281.373 78.9469 284.888 77.1163 285.927 73.8198C286.966 70.5256 285.135 67.008 281.841 65.9706ZM283.23 72.9699C282.661 74.775 280.732 75.7813 278.927 75.2123C277.123 74.6433 276.118 72.7137 276.687 70.9087C277.256 69.1036 279.187 68.0989 280.99 68.6679C282.793 69.2361 283.798 71.1656 283.23 72.9699ZM282.789 72.8319C283.282 71.2686 282.415 69.6 280.851 69.1076C279.286 68.6144 277.619 69.4834 277.126 71.0467C276.633 72.6132 277.502 74.2786 279.067 74.7718C280.63 75.2642 282.296 74.3967 282.789 72.8319ZM282.444 72.7225C282.011 74.0975 280.548 74.8596 279.174 74.4271C277.801 73.9945 277.038 72.531 277.471 71.1561C277.904 69.7827 279.367 69.0206 280.742 69.4531C282.115 69.8856 282.877 71.3492 282.444 72.7225ZM280.851 69.1076C279.286 68.6144 277.619 69.4834 277.125 71.0467C276.632 72.6132 277.501 74.2786 279.066 74.7718C280.629 75.265 282.295 74.3967 282.788 72.8319C283.281 71.2686 282.414 69.6 280.851 69.1076ZM282.444 72.7225C282.011 74.0975 280.548 74.8596 279.174 74.4271C277.801 73.9945 277.038 72.531 277.471 71.1561C277.904 69.7827 279.367 69.0206 280.742 69.4531C282.115 69.8856 282.877 71.3492 282.444 72.7225ZM280.851 69.1076C279.286 68.6144 277.619 69.4834 277.125 71.0467C276.632 72.6132 277.501 74.2786 279.066 74.7718C280.629 75.265 282.295 74.3967 282.788 72.8319C283.281 71.2686 282.414 69.6 280.851 69.1076ZM282.444 72.7225C282.011 74.0975 280.548 74.8596 279.174 74.4271C277.801 73.9945 277.038 72.531 277.471 71.1561C277.904 69.7827 279.367 69.0206 280.742 69.4531C282.115 69.8856 282.877 71.3492 282.444 72.7225Z" fill="#263238"/>
<path d="M279.302 78.022L277.007 77.2991L276.623 78.9637L278.664 79.6069L279.302 78.022Z" fill="#263238"/>
<path d="M275.178 75.8722L274.066 73.7384L272.617 74.6425L273.606 76.5409L275.178 75.8722Z" fill="#263238"/>
<path d="M273.781 71.4354L274.505 69.1403L272.84 68.7557L272.197 70.797L273.781 71.4354Z" fill="#263238"/>
<path d="M275.931 67.3105L278.066 66.1989L277.161 64.7497L275.262 65.7384L275.931 67.3105Z" fill="#263238"/>
<path d="M280.368 65.914L282.663 66.637L283.048 64.9724L281.007 64.3292L280.368 65.914Z" fill="#263238"/>
<path d="M284.493 68.0638L285.604 70.1985L287.053 69.2935L286.065 67.3951L284.493 68.0638Z" fill="#263238"/>
<path d="M285.889 72.5007L285.166 74.7957L286.831 75.1812L287.474 73.1399L285.889 72.5007Z" fill="#263238"/>
<path d="M283.739 76.6255L281.605 77.7372L282.51 79.1863L284.408 78.1976L283.739 76.6255Z" fill="#263238"/>
<path d="M250.355 183.114C248.79 182.621 247.123 183.49 246.63 185.053C246.137 186.619 247.006 188.285 248.571 188.778C250.134 189.271 251.799 188.403 252.293 186.838C252.785 185.275 251.918 183.606 250.355 183.114ZM251.948 186.729C251.514 188.104 250.052 188.866 248.678 188.433C247.305 188.001 246.543 186.537 246.975 185.162C247.408 183.789 248.872 183.027 250.246 183.459C251.618 183.892 252.381 185.355 251.948 186.729ZM250.355 183.114C248.79 182.621 247.123 183.49 246.63 185.053C246.137 186.619 247.006 188.285 248.571 188.778C250.134 189.271 251.799 188.403 252.293 186.838C252.785 185.275 251.918 183.606 250.355 183.114ZM251.948 186.729C251.514 188.104 250.052 188.866 248.678 188.433C247.305 188.001 246.543 186.537 246.975 185.162C247.408 183.789 248.872 183.027 250.246 183.459C251.618 183.892 252.381 185.355 251.948 186.729ZM250.355 183.114C248.79 182.621 247.123 183.49 246.63 185.053C246.137 186.619 247.006 188.285 248.571 188.778C250.134 189.271 251.799 188.403 252.293 186.838C252.785 185.275 251.918 183.606 250.355 183.114ZM251.948 186.729C251.514 188.104 250.052 188.866 248.678 188.433C247.305 188.001 246.543 186.537 246.975 185.162C247.408 183.789 248.872 183.027 250.246 183.459C251.618 183.892 252.381 185.355 251.948 186.729ZM251.345 179.977C248.046 178.938 244.532 180.771 243.493 184.065C242.455 187.362 244.284 190.877 247.582 191.915C250.877 192.953 254.392 191.123 255.43 187.826C256.469 184.532 254.639 181.014 251.345 179.977ZM252.734 186.976C252.165 188.781 250.235 189.788 248.431 189.219C246.628 188.65 245.621 186.72 246.19 184.915C246.759 183.11 248.69 182.105 250.494 182.674C252.297 183.242 253.302 185.172 252.734 186.976ZM252.293 186.838C252.785 185.275 251.918 183.606 250.355 183.114C248.79 182.621 247.123 183.49 246.63 185.053C246.137 186.619 247.006 188.285 248.571 188.778C250.134 189.271 251.799 188.403 252.293 186.838ZM251.948 186.729C251.514 188.104 250.052 188.866 248.678 188.433C247.305 188.001 246.543 186.537 246.975 185.162C247.408 183.789 248.872 183.027 250.246 183.459C251.618 183.892 252.381 185.355 251.948 186.729ZM250.355 183.114C248.79 182.621 247.123 183.49 246.63 185.053C246.137 186.619 247.006 188.285 248.571 188.778C250.134 189.271 251.799 188.403 252.293 186.838C252.785 185.275 251.918 183.606 250.355 183.114ZM251.948 186.729C251.514 188.104 250.052 188.866 248.678 188.433C247.305 188.001 246.543 186.537 246.975 185.162C247.408 183.789 248.872 183.027 250.246 183.459C251.618 183.892 252.381 185.355 251.948 186.729ZM250.355 183.114C248.79 182.621 247.123 183.49 246.63 185.053C246.137 186.619 247.006 188.285 248.571 188.778C250.134 189.271 251.799 188.403 252.293 186.838C252.785 185.275 251.918 183.606 250.355 183.114ZM251.948 186.729C251.514 188.104 250.052 188.866 248.678 188.433C247.305 188.001 246.543 186.537 246.975 185.162C247.408 183.789 248.872 183.027 250.246 183.459C251.618 183.892 252.381 185.355 251.948 186.729Z" fill="#263238"/>
<path d="M248.806 192.028L246.511 191.305L246.126 192.97L248.168 193.613L248.806 192.028Z" fill="#263238"/>
<path d="M244.681 189.878L243.57 187.745L242.12 188.649L243.109 190.547L244.681 189.878Z" fill="#263238"/>
<path d="M243.285 185.442L244.008 183.147L242.344 182.762L241.701 184.803L243.285 185.442Z" fill="#263238"/>
<path d="M245.435 181.317L247.569 180.206L246.664 178.756L244.766 179.745L245.435 181.317Z" fill="#263238"/>
<path d="M249.871 179.92L252.166 180.644L252.552 178.979L250.511 178.336L249.871 179.92Z" fill="#263238"/>
<path d="M253.996 182.07L255.108 184.205L256.557 183.3L255.568 181.401L253.996 182.07Z" fill="#263238"/>
<path d="M255.393 186.507L254.67 188.802L256.334 189.187L256.978 187.146L255.393 186.507Z" fill="#263238"/>
<path d="M253.243 190.632L251.109 191.743L252.013 193.193L253.912 192.204L253.243 190.632Z" fill="#263238"/>
<path d="M75.8268 93.3604C77.0573 88.3107 73.9603 83.2186 68.9105 81.9881C63.8592 80.7576 58.7664 83.8546 57.5358 88.9044C56.3053 93.9557 59.4024 99.0486 64.4537 100.279C69.5042 101.509 74.5963 98.4117 75.8268 93.3604ZM70.9526 92.173C70.3773 94.5335 68.0008 95.9794 65.6419 95.4041C63.2814 94.8287 61.8355 92.4523 62.4108 90.0918C62.9854 87.7329 65.3626 86.2877 67.7231 86.8631C70.0812 87.4376 71.5272 89.8141 70.9526 92.173Z" fill="#263238"/>
<path d="M66.3043 100.327L62.7875 99.4699L62.3757 102.007L65.5031 102.769L66.3043 100.327Z" fill="#263238"/>
<path d="M59.8995 97.5116L58.0186 94.4185L55.9335 95.9212L57.6061 98.6719L59.8995 97.5116Z" fill="#263238"/>
<path d="M57.3611 90.9911L58.2181 87.4751L55.6813 87.0626L54.9192 90.1907L57.3611 90.9911Z" fill="#263238"/>
<path d="M60.1772 84.5864L63.2695 82.7055L61.7676 80.6203L59.0169 82.2937L60.1772 84.5864Z" fill="#263238"/>
<path d="M66.6969 82.0488L70.2137 82.9058L70.6262 80.369L67.4981 79.6069L66.6969 82.0488Z" fill="#263238"/>
<path d="M73.1016 84.8641L74.9825 87.9571L77.0677 86.4545L75.3951 83.7038L73.1016 84.8641Z" fill="#263238"/>
<path d="M75.6401 91.3846L74.783 94.9013L77.3199 95.3131L78.082 92.1849L75.6401 91.3846Z" fill="#263238"/>
<path d="M72.8239 97.7893L69.7317 99.6702L71.2343 101.755L73.985 100.082L72.8239 97.7893Z" fill="#263238"/>
<path d="M63.7515 92.86L66.574 94.4058L69.3231 92.7316L69.2489 89.5164L66.428 87.9715L63.6772 89.6425L63.7515 92.86ZM66.7416 90.1971C67.2906 90.3304 67.625 90.881 67.4909 91.43C67.3576 91.9767 66.807 92.3134 66.258 92.1794C65.7113 92.0461 65.3754 91.4931 65.5087 90.9464C65.6427 90.3982 66.1949 90.0639 66.7416 90.1971Z" fill="#263238"/>
<path d="M288.549 190.673C286.402 187.404 285.196 183.728 285.196 179.841C285.196 166.119 300.264 154.993 318.841 154.993C337.418 154.993 352.473 166.12 352.473 179.841C352.473 193.563 337.418 204.689 318.841 204.689C309.833 204.689 301.667 202.08 295.634 197.815L284.045 200.762L288.549 190.673Z" fill="white"/>
<path d="M288.549 190.673C286.523 187.655 285.254 184.092 285.121 180.432C285.02 176.779 285.92 173.084 287.796 169.923C289.63 166.739 292.244 164.054 295.196 161.895C298.152 159.724 301.48 158.084 304.954 156.931C308.429 155.77 312.049 155.074 315.701 154.782C319.358 154.514 323.04 154.741 326.654 155.339C327.552 155.523 328.463 155.646 329.35 155.881L332.007 156.596L334.603 157.513C335.466 157.824 336.287 158.245 337.131 158.606C340.444 160.182 343.551 162.247 346.164 164.854C348.77 167.451 350.872 170.624 351.98 174.174C353.086 177.711 353.167 181.594 352.09 185.152C351.043 188.721 348.99 191.927 346.419 194.558C343.842 197.199 340.76 199.301 337.464 200.913C334.168 202.544 330.617 203.607 327.016 204.261C323.408 204.88 319.727 205.145 316.073 204.887C312.421 204.657 308.792 203.99 305.316 202.842C301.844 201.698 298.503 200.102 295.53 197.964L295.68 197.992L284.067 200.847L283.892 200.89L283.966 200.727L288.549 190.673ZM288.549 190.673L284.125 200.796L284.023 200.675L295.59 197.637L295.669 197.617L295.74 197.665C301.707 201.785 308.904 203.929 316.108 204.314C319.718 204.537 323.349 204.242 326.895 203.601C330.438 202.943 333.929 201.89 337.156 200.28C340.385 198.689 343.392 196.622 345.891 194.045C348.384 191.477 350.356 188.37 351.352 184.938C352.379 181.516 352.281 177.801 351.221 174.408C350.166 170.998 348.151 167.925 345.623 165.392C343.091 162.85 340.062 160.82 336.818 159.266C335.992 158.91 335.189 158.494 334.342 158.187L331.796 157.279L329.185 156.568C328.315 156.334 327.418 156.212 326.535 156.027C322.98 155.424 319.353 155.205 315.747 155.437C312.146 155.693 308.569 156.347 305.133 157.462C301.697 158.569 298.401 160.157 295.47 162.271C292.539 164.372 289.956 166.997 288.094 170.096C286.198 173.179 285.252 176.805 285.294 180.426C285.366 184.055 286.571 187.624 288.549 190.673Z" fill="#263238"/>
<path d="M301.533 183.909V185.757H294.004V174.914H301.396V176.762H296.112V179.373H300.678V181.084H296.112V183.909L301.533 183.909Z" fill="#263238"/>
<path d="M303.183 185.758V174.914H307.979C308.478 174.914 308.939 175.019 309.361 175.228C309.783 175.437 310.147 175.712 310.452 176.052C310.758 176.394 310.997 176.781 311.17 177.213C311.343 177.646 311.429 178.082 311.429 178.519C311.429 179.221 311.253 179.86 310.902 180.436C310.552 181.011 310.076 181.426 309.475 181.68L311.949 185.758H309.582L307.368 182.123H305.291V185.758H303.183ZM305.291 180.275H307.933C308.126 180.275 308.307 180.229 308.475 180.137C308.643 180.046 308.788 179.921 308.911 179.763C309.033 179.606 309.129 179.42 309.2 179.206C309.272 178.992 309.308 178.763 309.308 178.519C309.308 178.264 309.266 178.031 309.186 177.817C309.104 177.603 308.995 177.418 308.857 177.26C308.72 177.102 308.562 176.98 308.384 176.893C308.205 176.806 308.025 176.763 307.841 176.763H305.292V180.275H305.291Z" fill="#263238"/>
<path d="M313.338 185.758V174.914H318.134C318.633 174.914 319.093 175.019 319.515 175.228C319.937 175.437 320.301 175.712 320.607 176.052C320.913 176.394 321.152 176.781 321.324 177.213C321.497 177.646 321.584 178.082 321.584 178.519C321.584 179.221 321.408 179.86 321.057 180.436C320.707 181.011 320.23 181.426 319.629 181.68L322.103 185.758H319.735L317.521 182.123H315.445V185.758H313.338ZM315.446 180.275H318.088C318.281 180.275 318.462 180.229 318.629 180.137C318.798 180.046 318.942 179.921 319.065 179.763C319.187 179.606 319.284 179.42 319.355 179.206C319.427 178.992 319.463 178.763 319.463 178.519C319.463 178.264 319.421 178.031 319.34 177.817C319.258 177.603 319.15 177.418 319.012 177.26C318.874 177.102 318.716 176.98 318.538 176.893C318.36 176.806 318.179 176.763 317.996 176.763H315.446V180.275Z" fill="#263238"/>
<path d="M328.122 185.833C327.328 185.833 326.608 185.679 325.961 185.368C325.313 185.058 324.759 184.645 324.296 184.131C323.832 183.617 323.474 183.029 323.219 182.368C322.965 181.706 322.838 181.029 322.838 180.337C322.838 179.614 322.973 178.922 323.243 178.26C323.512 177.598 323.884 177.012 324.357 176.503C324.831 175.994 325.393 175.59 326.044 175.289C326.696 174.989 327.403 174.839 328.167 174.839C328.951 174.839 329.666 174.999 330.313 175.32C330.96 175.641 331.512 176.06 331.97 176.58C332.428 177.099 332.784 177.69 333.039 178.351C333.293 179.014 333.42 179.685 333.42 180.367C333.42 181.09 333.288 181.78 333.024 182.436C332.759 183.093 332.392 183.673 331.924 184.178C331.456 184.682 330.895 185.084 330.244 185.384C329.592 185.683 328.885 185.833 328.122 185.833ZM324.975 180.336C324.975 180.804 325.046 181.258 325.189 181.695C325.332 182.133 325.539 182.52 325.807 182.856C326.077 183.192 326.408 183.462 326.8 183.665C327.192 183.869 327.637 183.971 328.137 183.971C328.646 183.971 329.096 183.867 329.488 183.658C329.88 183.45 330.21 183.172 330.481 182.826C330.75 182.479 330.954 182.09 331.092 181.658C331.229 181.225 331.298 180.784 331.298 180.337C331.298 179.869 331.223 179.416 331.077 178.978C330.929 178.541 330.721 178.153 330.451 177.817C330.18 177.481 329.85 177.213 329.458 177.016C329.066 176.817 328.626 176.717 328.138 176.717C327.628 176.717 327.175 176.822 326.779 177.031C326.381 177.24 326.05 177.514 325.786 177.855C325.521 178.197 325.32 178.584 325.183 179.016C325.044 179.448 324.975 179.888 324.975 180.336Z" fill="#263238"/>
<path d="M335.039 185.758V174.914H339.835C340.334 174.914 340.795 175.019 341.217 175.228C341.639 175.437 342.003 175.712 342.308 176.052C342.614 176.394 342.854 176.781 343.026 177.213C343.199 177.646 343.285 178.082 343.285 178.519C343.285 179.221 343.11 179.86 342.759 180.436C342.408 181.011 341.932 181.426 341.331 181.68L343.806 185.758H341.438L339.224 182.123H337.147V185.758H335.039ZM337.147 180.275H339.789C339.982 180.275 340.163 180.229 340.331 180.137C340.499 180.046 340.645 179.921 340.767 179.763C340.889 179.606 340.985 179.42 341.056 179.206C341.128 178.992 341.164 178.763 341.164 178.519C341.164 178.264 341.123 178.031 341.042 177.817C340.96 177.603 340.851 177.418 340.713 177.26C340.576 177.102 340.418 176.98 340.24 176.893C340.061 176.806 339.881 176.763 339.697 176.763H337.148V180.275H337.147Z" fill="#263238"/>
</svg>
